<mxfile host="app.diagrams.net" modified="2023-12-02T03:51:12.847Z" agent="Mozilla/5.0 (Windows NT 10.0; Win64; x64) AppleWebKit/537.36 (KHTML, like Gecko) Chrome/119.0.0.0 Safari/537.36" etag="HomqvPOzIH0mSXcxM6S2" version="22.1.5" type="device" pages="2">
  <diagram name="vanila" id="0EYpQZ7-rSxU-FUyH_f6">
    <mxGraphModel dx="1644" dy="1524" grid="1" gridSize="10" guides="1" tooltips="1" connect="1" arrows="1" fold="1" page="1" pageScale="1" pageWidth="850" pageHeight="1100" math="0" shadow="0">
      <root>
        <mxCell id="0" />
        <mxCell id="1" parent="0" />
        <mxCell id="tbhvGhJTGy5tQaEqkJn1-11" value="" style="edgeStyle=orthogonalEdgeStyle;rounded=0;orthogonalLoop=1;jettySize=auto;html=1;" parent="1" source="tbhvGhJTGy5tQaEqkJn1-2" target="tbhvGhJTGy5tQaEqkJn1-10" edge="1">
          <mxGeometry relative="1" as="geometry" />
        </mxCell>
        <mxCell id="_W4VezqcyxMWy2lPJJjb-2" style="edgeStyle=orthogonalEdgeStyle;rounded=0;orthogonalLoop=1;jettySize=auto;html=1;exitX=0.5;exitY=1;exitDx=0;exitDy=0;entryX=0;entryY=0.5;entryDx=0;entryDy=0;" parent="1" source="tbhvGhJTGy5tQaEqkJn1-2" target="_W4VezqcyxMWy2lPJJjb-1" edge="1">
          <mxGeometry relative="1" as="geometry" />
        </mxCell>
        <mxCell id="YZ16rwDsnffzLJnngZRJ-2" value="" style="edgeStyle=orthogonalEdgeStyle;rounded=0;orthogonalLoop=1;jettySize=auto;html=1;entryX=0;entryY=0.5;entryDx=0;entryDy=0;" parent="1" source="tbhvGhJTGy5tQaEqkJn1-2" target="_W4VezqcyxMWy2lPJJjb-32" edge="1">
          <mxGeometry relative="1" as="geometry">
            <mxPoint x="240" y="539.9999999999998" as="targetPoint" />
            <Array as="points">
              <mxPoint x="135" y="540" />
            </Array>
          </mxGeometry>
        </mxCell>
        <mxCell id="tbhvGhJTGy5tQaEqkJn1-2" value="idle" style="ellipse;whiteSpace=wrap;html=1;rounded=0;" parent="1" vertex="1">
          <mxGeometry x="95" y="126" width="80" height="80" as="geometry" />
        </mxCell>
        <mxCell id="tbhvGhJTGy5tQaEqkJn1-6" value="Manager" style="swimlane;fontStyle=1;align=center;verticalAlign=top;childLayout=stackLayout;horizontal=1;startSize=26;horizontalStack=0;resizeParent=1;resizeParentMax=0;resizeLast=0;collapsible=1;marginBottom=0;whiteSpace=wrap;html=1;" parent="1" vertex="1">
          <mxGeometry x="-150" y="120" width="160" height="86" as="geometry" />
        </mxCell>
        <mxCell id="tbhvGhJTGy5tQaEqkJn1-7" value="+ records: []ManagerRecord" style="text;strokeColor=none;fillColor=none;align=left;verticalAlign=top;spacingLeft=4;spacingRight=4;overflow=hidden;rotatable=0;points=[[0,0.5],[1,0.5]];portConstraint=eastwest;whiteSpace=wrap;html=1;" parent="tbhvGhJTGy5tQaEqkJn1-6" vertex="1">
          <mxGeometry y="26" width="160" height="26" as="geometry" />
        </mxCell>
        <mxCell id="tbhvGhJTGy5tQaEqkJn1-8" value="" style="line;strokeWidth=1;fillColor=none;align=left;verticalAlign=middle;spacingTop=-1;spacingLeft=3;spacingRight=3;rotatable=0;labelPosition=right;points=[];portConstraint=eastwest;strokeColor=inherit;" parent="tbhvGhJTGy5tQaEqkJn1-6" vertex="1">
          <mxGeometry y="52" width="160" height="8" as="geometry" />
        </mxCell>
        <mxCell id="tbhvGhJTGy5tQaEqkJn1-9" value="+ method(type): type" style="text;strokeColor=none;fillColor=none;align=left;verticalAlign=top;spacingLeft=4;spacingRight=4;overflow=hidden;rotatable=0;points=[[0,0.5],[1,0.5]];portConstraint=eastwest;whiteSpace=wrap;html=1;" parent="tbhvGhJTGy5tQaEqkJn1-6" vertex="1">
          <mxGeometry y="60" width="160" height="26" as="geometry" />
        </mxCell>
        <mxCell id="tbhvGhJTGy5tQaEqkJn1-97" value="" style="edgeStyle=orthogonalEdgeStyle;rounded=0;orthogonalLoop=1;jettySize=auto;html=1;" parent="1" source="tbhvGhJTGy5tQaEqkJn1-10" target="tbhvGhJTGy5tQaEqkJn1-51" edge="1">
          <mxGeometry relative="1" as="geometry" />
        </mxCell>
        <mxCell id="tbhvGhJTGy5tQaEqkJn1-10" value="foward read&amp;nbsp;" style="ellipse;whiteSpace=wrap;html=1;rounded=0;" parent="1" vertex="1">
          <mxGeometry x="260" y="126" width="80" height="80" as="geometry" />
        </mxCell>
        <mxCell id="tbhvGhJTGy5tQaEqkJn1-12" value="Server" style="swimlane;fontStyle=1;align=center;verticalAlign=top;childLayout=stackLayout;horizontal=1;startSize=26;horizontalStack=0;resizeParent=1;resizeParentMax=0;resizeLast=0;collapsible=1;marginBottom=0;whiteSpace=wrap;html=1;" parent="1" vertex="1">
          <mxGeometry x="-190" y="870" width="280" height="242" as="geometry" />
        </mxCell>
        <mxCell id="tbhvGhJTGy5tQaEqkJn1-13" value="+ records: []ServerRecord&lt;br&gt;" style="text;strokeColor=none;fillColor=none;align=left;verticalAlign=top;spacingLeft=4;spacingRight=4;overflow=hidden;rotatable=0;points=[[0,0.5],[1,0.5]];portConstraint=eastwest;whiteSpace=wrap;html=1;" parent="tbhvGhJTGy5tQaEqkJn1-12" vertex="1">
          <mxGeometry y="26" width="280" height="26" as="geometry" />
        </mxCell>
        <mxCell id="tbhvGhJTGy5tQaEqkJn1-16" value="+ cache: []Page" style="text;strokeColor=none;fillColor=none;align=left;verticalAlign=top;spacingLeft=4;spacingRight=4;overflow=hidden;rotatable=0;points=[[0,0.5],[1,0.5]];portConstraint=eastwest;whiteSpace=wrap;html=1;" parent="tbhvGhJTGy5tQaEqkJn1-12" vertex="1">
          <mxGeometry y="52" width="280" height="26" as="geometry" />
        </mxCell>
        <mxCell id="tbhvGhJTGy5tQaEqkJn1-14" value="" style="line;strokeWidth=1;fillColor=none;align=left;verticalAlign=middle;spacingTop=-1;spacingLeft=3;spacingRight=3;rotatable=0;labelPosition=right;points=[];portConstraint=eastwest;strokeColor=inherit;" parent="tbhvGhJTGy5tQaEqkJn1-12" vertex="1">
          <mxGeometry y="78" width="280" height="8" as="geometry" />
        </mxCell>
        <mxCell id="tbhvGhJTGy5tQaEqkJn1-15" value="+ read(page_num int): Page" style="text;strokeColor=none;fillColor=none;align=left;verticalAlign=top;spacingLeft=4;spacingRight=4;overflow=hidden;rotatable=0;points=[[0,0.5],[1,0.5]];portConstraint=eastwest;whiteSpace=wrap;html=1;" parent="tbhvGhJTGy5tQaEqkJn1-12" vertex="1">
          <mxGeometry y="86" width="280" height="26" as="geometry" />
        </mxCell>
        <mxCell id="tbhvGhJTGy5tQaEqkJn1-168" value="+ write(page_num int): Page" style="text;strokeColor=none;fillColor=none;align=left;verticalAlign=top;spacingLeft=4;spacingRight=4;overflow=hidden;rotatable=0;points=[[0,0.5],[1,0.5]];portConstraint=eastwest;whiteSpace=wrap;html=1;" parent="tbhvGhJTGy5tQaEqkJn1-12" vertex="1">
          <mxGeometry y="112" width="280" height="26" as="geometry" />
        </mxCell>
        <mxCell id="tbhvGhJTGy5tQaEqkJn1-17" value="+ reqRead(page_num int)" style="text;strokeColor=none;fillColor=none;align=left;verticalAlign=top;spacingLeft=4;spacingRight=4;overflow=hidden;rotatable=0;points=[[0,0.5],[1,0.5]];portConstraint=eastwest;whiteSpace=wrap;html=1;" parent="tbhvGhJTGy5tQaEqkJn1-12" vertex="1">
          <mxGeometry y="138" width="280" height="26" as="geometry" />
        </mxCell>
        <mxCell id="tbhvGhJTGy5tQaEqkJn1-167" value="+ reqWrite(page_num int)" style="text;strokeColor=none;fillColor=none;align=left;verticalAlign=top;spacingLeft=4;spacingRight=4;overflow=hidden;rotatable=0;points=[[0,0.5],[1,0.5]];portConstraint=eastwest;whiteSpace=wrap;html=1;" parent="tbhvGhJTGy5tQaEqkJn1-12" vertex="1">
          <mxGeometry y="164" width="280" height="26" as="geometry" />
        </mxCell>
        <mxCell id="tbhvGhJTGy5tQaEqkJn1-18" value="+ invalidateCache(page_num int)" style="text;strokeColor=none;fillColor=none;align=left;verticalAlign=top;spacingLeft=4;spacingRight=4;overflow=hidden;rotatable=0;points=[[0,0.5],[1,0.5]];portConstraint=eastwest;whiteSpace=wrap;html=1;" parent="tbhvGhJTGy5tQaEqkJn1-12" vertex="1">
          <mxGeometry y="190" width="280" height="26" as="geometry" />
        </mxCell>
        <mxCell id="tbhvGhJTGy5tQaEqkJn1-19" value="+ updateCache(page_num int, page Page)" style="text;strokeColor=none;fillColor=none;align=left;verticalAlign=top;spacingLeft=4;spacingRight=4;overflow=hidden;rotatable=0;points=[[0,0.5],[1,0.5]];portConstraint=eastwest;whiteSpace=wrap;html=1;" parent="tbhvGhJTGy5tQaEqkJn1-12" vertex="1">
          <mxGeometry y="216" width="280" height="26" as="geometry" />
        </mxCell>
        <mxCell id="tbhvGhJTGy5tQaEqkJn1-20" value="&lt;div&gt;Only one machine can write a page at a time&lt;/div&gt;&lt;div&gt;All write requests to a page are serviced FIFO&lt;/div&gt;&lt;div&gt;&lt;div&gt;(Exclusive) Each page has at most one owner at a time&lt;/div&gt;&lt;div&gt;(Invalidation) Write protocol ensures all cached pages to be invalidated&lt;/div&gt;&lt;div&gt;(Claiming Ownership) A machine wish to write a page needs to claim ownership&lt;/div&gt;&lt;/div&gt;&lt;div&gt;&lt;br&gt;&lt;/div&gt;" style="text;html=1;strokeColor=none;fillColor=none;align=left;verticalAlign=middle;whiteSpace=wrap;rounded=0;" parent="1" vertex="1">
          <mxGeometry x="-200" y="-60" width="330" height="140" as="geometry" />
        </mxCell>
        <mxCell id="tbhvGhJTGy5tQaEqkJn1-24" value="" style="edgeStyle=orthogonalEdgeStyle;rounded=0;orthogonalLoop=1;jettySize=auto;html=1;exitX=0.5;exitY=1;exitDx=0;exitDy=0;entryX=-0.012;entryY=0.589;entryDx=0;entryDy=0;entryPerimeter=0;" parent="1" source="tbhvGhJTGy5tQaEqkJn1-22" target="tbhvGhJTGy5tQaEqkJn1-23" edge="1">
          <mxGeometry relative="1" as="geometry">
            <Array as="points">
              <mxPoint x="190" y="1022" />
            </Array>
          </mxGeometry>
        </mxCell>
        <mxCell id="tbhvGhJTGy5tQaEqkJn1-41" value="" style="edgeStyle=orthogonalEdgeStyle;rounded=0;orthogonalLoop=1;jettySize=auto;html=1;exitX=0.5;exitY=1;exitDx=0;exitDy=0;" parent="1" source="tbhvGhJTGy5tQaEqkJn1-22" target="tbhvGhJTGy5tQaEqkJn1-40" edge="1">
          <mxGeometry relative="1" as="geometry">
            <Array as="points">
              <mxPoint x="190" y="1430" />
            </Array>
          </mxGeometry>
        </mxCell>
        <mxCell id="tbhvGhJTGy5tQaEqkJn1-119" style="edgeStyle=orthogonalEdgeStyle;rounded=0;orthogonalLoop=1;jettySize=auto;html=1;exitX=0.5;exitY=1;exitDx=0;exitDy=0;entryX=0;entryY=0.5;entryDx=0;entryDy=0;" parent="1" source="tbhvGhJTGy5tQaEqkJn1-22" target="tbhvGhJTGy5tQaEqkJn1-120" edge="1">
          <mxGeometry relative="1" as="geometry">
            <mxPoint x="250" y="1352.2857142857142" as="targetPoint" />
            <Array as="points">
              <mxPoint x="190" y="1570" />
            </Array>
          </mxGeometry>
        </mxCell>
        <mxCell id="tbhvGhJTGy5tQaEqkJn1-135" style="edgeStyle=orthogonalEdgeStyle;rounded=0;orthogonalLoop=1;jettySize=auto;html=1;exitX=0.5;exitY=1;exitDx=0;exitDy=0;entryX=0;entryY=0.5;entryDx=0;entryDy=0;" parent="1" source="tbhvGhJTGy5tQaEqkJn1-22" target="tbhvGhJTGy5tQaEqkJn1-134" edge="1">
          <mxGeometry relative="1" as="geometry" />
        </mxCell>
        <mxCell id="_W4VezqcyxMWy2lPJJjb-28" style="edgeStyle=orthogonalEdgeStyle;rounded=0;orthogonalLoop=1;jettySize=auto;html=1;exitX=0.5;exitY=1;exitDx=0;exitDy=0;entryX=0;entryY=0.5;entryDx=0;entryDy=0;" parent="1" source="tbhvGhJTGy5tQaEqkJn1-22" target="_W4VezqcyxMWy2lPJJjb-27" edge="1">
          <mxGeometry relative="1" as="geometry" />
        </mxCell>
        <mxCell id="tbhvGhJTGy5tQaEqkJn1-22" value="idle" style="ellipse;whiteSpace=wrap;html=1;rounded=0;" parent="1" vertex="1">
          <mxGeometry x="150" y="880" width="80" height="80" as="geometry" />
        </mxCell>
        <mxCell id="tbhvGhJTGy5tQaEqkJn1-32" value="" style="edgeStyle=orthogonalEdgeStyle;rounded=0;orthogonalLoop=1;jettySize=auto;html=1;" parent="1" source="tbhvGhJTGy5tQaEqkJn1-23" target="tbhvGhJTGy5tQaEqkJn1-31" edge="1">
          <mxGeometry relative="1" as="geometry" />
        </mxCell>
        <mxCell id="tbhvGhJTGy5tQaEqkJn1-23" value="request to read page" style="ellipse;whiteSpace=wrap;html=1;rounded=0;" parent="1" vertex="1">
          <mxGeometry x="260" y="975" width="80" height="80" as="geometry" />
        </mxCell>
        <mxCell id="tbhvGhJTGy5tQaEqkJn1-34" value="" style="edgeStyle=orthogonalEdgeStyle;rounded=0;orthogonalLoop=1;jettySize=auto;html=1;" parent="1" source="tbhvGhJTGy5tQaEqkJn1-31" target="tbhvGhJTGy5tQaEqkJn1-33" edge="1">
          <mxGeometry relative="1" as="geometry">
            <Array as="points">
              <mxPoint x="470" y="1015" />
              <mxPoint x="470" y="920" />
            </Array>
          </mxGeometry>
        </mxCell>
        <mxCell id="tbhvGhJTGy5tQaEqkJn1-37" value="" style="edgeStyle=orthogonalEdgeStyle;rounded=0;orthogonalLoop=1;jettySize=auto;html=1;" parent="1" source="tbhvGhJTGy5tQaEqkJn1-31" target="tbhvGhJTGy5tQaEqkJn1-36" edge="1">
          <mxGeometry relative="1" as="geometry">
            <Array as="points">
              <mxPoint x="470" y="1015" />
              <mxPoint x="470" y="1090" />
            </Array>
          </mxGeometry>
        </mxCell>
        <mxCell id="tbhvGhJTGy5tQaEqkJn1-31" value="found in&lt;br&gt;&amp;nbsp;local?" style="rhombus;whiteSpace=wrap;html=1;rounded=0;" parent="1" vertex="1">
          <mxGeometry x="365" y="975" width="80" height="80" as="geometry" />
        </mxCell>
        <mxCell id="tbhvGhJTGy5tQaEqkJn1-44" value="" style="edgeStyle=orthogonalEdgeStyle;rounded=0;orthogonalLoop=1;jettySize=auto;html=1;" parent="1" source="tbhvGhJTGy5tQaEqkJn1-33" target="tbhvGhJTGy5tQaEqkJn1-43" edge="1">
          <mxGeometry relative="1" as="geometry" />
        </mxCell>
        <mxCell id="tbhvGhJTGy5tQaEqkJn1-33" value="request manger" style="ellipse;whiteSpace=wrap;html=1;rounded=0;" parent="1" vertex="1">
          <mxGeometry x="490" y="880" width="80" height="80" as="geometry" />
        </mxCell>
        <mxCell id="tbhvGhJTGy5tQaEqkJn1-35" value="No" style="text;html=1;strokeColor=none;fillColor=none;align=center;verticalAlign=middle;whiteSpace=wrap;rounded=0;" parent="1" vertex="1">
          <mxGeometry x="420" y="945" width="60" height="30" as="geometry" />
        </mxCell>
        <mxCell id="tbhvGhJTGy5tQaEqkJn1-154" value="" style="edgeStyle=orthogonalEdgeStyle;rounded=0;orthogonalLoop=1;jettySize=auto;html=1;" parent="1" source="tbhvGhJTGy5tQaEqkJn1-36" target="tbhvGhJTGy5tQaEqkJn1-127" edge="1">
          <mxGeometry relative="1" as="geometry" />
        </mxCell>
        <mxCell id="tbhvGhJTGy5tQaEqkJn1-36" value="Read" style="ellipse;whiteSpace=wrap;html=1;rounded=0;" parent="1" vertex="1">
          <mxGeometry x="500" y="1050" width="80" height="80" as="geometry" />
        </mxCell>
        <mxCell id="tbhvGhJTGy5tQaEqkJn1-38" value="yes" style="text;html=1;strokeColor=none;fillColor=none;align=center;verticalAlign=middle;whiteSpace=wrap;rounded=0;" parent="1" vertex="1">
          <mxGeometry x="420" y="1040" width="60" height="30" as="geometry" />
        </mxCell>
        <mxCell id="tbhvGhJTGy5tQaEqkJn1-39" value="rcv read req" style="text;html=1;strokeColor=none;fillColor=none;align=center;verticalAlign=middle;whiteSpace=wrap;rounded=0;" parent="1" vertex="1">
          <mxGeometry x="175" y="140" width="80" height="30" as="geometry" />
        </mxCell>
        <mxCell id="tbhvGhJTGy5tQaEqkJn1-130" value="" style="edgeStyle=orthogonalEdgeStyle;rounded=0;orthogonalLoop=1;jettySize=auto;html=1;" parent="1" source="tbhvGhJTGy5tQaEqkJn1-40" target="tbhvGhJTGy5tQaEqkJn1-129" edge="1">
          <mxGeometry relative="1" as="geometry" />
        </mxCell>
        <mxCell id="tbhvGhJTGy5tQaEqkJn1-40" value="send page" style="ellipse;whiteSpace=wrap;html=1;rounded=0;" parent="1" vertex="1">
          <mxGeometry x="280" y="1390" width="80" height="80" as="geometry" />
        </mxCell>
        <mxCell id="tbhvGhJTGy5tQaEqkJn1-42" value="Rcv read forward" style="text;html=1;strokeColor=none;fillColor=none;align=center;verticalAlign=middle;whiteSpace=wrap;rounded=0;" parent="1" vertex="1">
          <mxGeometry x="210" y="1390" width="60" height="30" as="geometry" />
        </mxCell>
        <mxCell id="tbhvGhJTGy5tQaEqkJn1-49" value="" style="edgeStyle=orthogonalEdgeStyle;rounded=0;orthogonalLoop=1;jettySize=auto;html=1;" parent="1" source="tbhvGhJTGy5tQaEqkJn1-43" target="tbhvGhJTGy5tQaEqkJn1-48" edge="1">
          <mxGeometry relative="1" as="geometry" />
        </mxCell>
        <mxCell id="tbhvGhJTGy5tQaEqkJn1-43" value="wait for page" style="ellipse;whiteSpace=wrap;html=1;rounded=0;" parent="1" vertex="1">
          <mxGeometry x="610" y="880" width="80" height="80" as="geometry" />
        </mxCell>
        <mxCell id="tbhvGhJTGy5tQaEqkJn1-46" value="Rcv page" style="text;html=1;strokeColor=none;fillColor=none;align=center;verticalAlign=middle;whiteSpace=wrap;rounded=0;" parent="1" vertex="1">
          <mxGeometry x="690" y="890" width="60" height="30" as="geometry" />
        </mxCell>
        <mxCell id="tbhvGhJTGy5tQaEqkJn1-151" value="" style="edgeStyle=orthogonalEdgeStyle;rounded=0;orthogonalLoop=1;jettySize=auto;html=1;" parent="1" source="tbhvGhJTGy5tQaEqkJn1-48" target="tbhvGhJTGy5tQaEqkJn1-150" edge="1">
          <mxGeometry relative="1" as="geometry" />
        </mxCell>
        <mxCell id="tbhvGhJTGy5tQaEqkJn1-48" value="cache page, mark access as read" style="ellipse;whiteSpace=wrap;html=1;rounded=0;" parent="1" vertex="1">
          <mxGeometry x="750" y="880" width="80" height="80" as="geometry" />
        </mxCell>
        <mxCell id="tbhvGhJTGy5tQaEqkJn1-54" value="" style="edgeStyle=orthogonalEdgeStyle;rounded=0;orthogonalLoop=1;jettySize=auto;html=1;" parent="1" source="tbhvGhJTGy5tQaEqkJn1-51" target="tbhvGhJTGy5tQaEqkJn1-53" edge="1">
          <mxGeometry relative="1" as="geometry" />
        </mxCell>
        <mxCell id="tbhvGhJTGy5tQaEqkJn1-51" value="wait for read confirm" style="ellipse;whiteSpace=wrap;html=1;rounded=0;" parent="1" vertex="1">
          <mxGeometry x="390" y="126" width="80" height="80" as="geometry" />
        </mxCell>
        <mxCell id="tbhvGhJTGy5tQaEqkJn1-113" value="" style="edgeStyle=orthogonalEdgeStyle;rounded=0;orthogonalLoop=1;jettySize=auto;html=1;" parent="1" source="tbhvGhJTGy5tQaEqkJn1-53" target="tbhvGhJTGy5tQaEqkJn1-112" edge="1">
          <mxGeometry relative="1" as="geometry" />
        </mxCell>
        <mxCell id="tbhvGhJTGy5tQaEqkJn1-53" value="add reader to copy set" style="ellipse;whiteSpace=wrap;html=1;rounded=0;" parent="1" vertex="1">
          <mxGeometry x="550" y="126" width="80" height="80" as="geometry" />
        </mxCell>
        <mxCell id="tbhvGhJTGy5tQaEqkJn1-55" value="rcv rd cfm" style="text;html=1;strokeColor=none;fillColor=none;align=center;verticalAlign=middle;whiteSpace=wrap;rounded=0;" parent="1" vertex="1">
          <mxGeometry x="480" y="140" width="60" height="30" as="geometry" />
        </mxCell>
        <mxCell id="tbhvGhJTGy5tQaEqkJn1-59" value="rcv write req" style="text;html=1;strokeColor=none;fillColor=none;align=center;verticalAlign=middle;whiteSpace=wrap;rounded=0;" parent="1" vertex="1">
          <mxGeometry x="140" y="350" width="80" height="30" as="geometry" />
        </mxCell>
        <mxCell id="tbhvGhJTGy5tQaEqkJn1-69" value="" style="edgeStyle=orthogonalEdgeStyle;rounded=0;orthogonalLoop=1;jettySize=auto;html=1;" parent="1" source="tbhvGhJTGy5tQaEqkJn1-66" target="tbhvGhJTGy5tQaEqkJn1-68" edge="1">
          <mxGeometry relative="1" as="geometry" />
        </mxCell>
        <mxCell id="tbhvGhJTGy5tQaEqkJn1-66" value="send invalidate cache req to copys" style="ellipse;whiteSpace=wrap;html=1;rounded=0;" parent="1" vertex="1">
          <mxGeometry x="550" y="620" width="80" height="80" as="geometry" />
        </mxCell>
        <mxCell id="tbhvGhJTGy5tQaEqkJn1-71" value="" style="edgeStyle=orthogonalEdgeStyle;rounded=0;orthogonalLoop=1;jettySize=auto;html=1;" parent="1" source="tbhvGhJTGy5tQaEqkJn1-68" target="tbhvGhJTGy5tQaEqkJn1-70" edge="1">
          <mxGeometry relative="1" as="geometry" />
        </mxCell>
        <mxCell id="tbhvGhJTGy5tQaEqkJn1-68" value="wait for inval confim" style="ellipse;whiteSpace=wrap;html=1;rounded=0;" parent="1" vertex="1">
          <mxGeometry x="700" y="620" width="80" height="80" as="geometry" />
        </mxCell>
        <mxCell id="tbhvGhJTGy5tQaEqkJn1-80" value="" style="edgeStyle=orthogonalEdgeStyle;rounded=0;orthogonalLoop=1;jettySize=auto;html=1;" parent="1" source="tbhvGhJTGy5tQaEqkJn1-70" target="tbhvGhJTGy5tQaEqkJn1-79" edge="1">
          <mxGeometry relative="1" as="geometry" />
        </mxCell>
        <mxCell id="tbhvGhJTGy5tQaEqkJn1-70" value="pop copy record" style="ellipse;whiteSpace=wrap;html=1;rounded=0;" parent="1" vertex="1">
          <mxGeometry x="860" y="620" width="80" height="80" as="geometry" />
        </mxCell>
        <mxCell id="tbhvGhJTGy5tQaEqkJn1-74" value="yes" style="text;html=1;strokeColor=none;fillColor=none;align=center;verticalAlign=middle;whiteSpace=wrap;rounded=0;" parent="1" vertex="1">
          <mxGeometry x="1010" y="595" width="60" height="30" as="geometry" />
        </mxCell>
        <mxCell id="tbhvGhJTGy5tQaEqkJn1-76" value="rcv cfm" style="text;html=1;strokeColor=none;fillColor=none;align=center;verticalAlign=middle;whiteSpace=wrap;rounded=0;" parent="1" vertex="1">
          <mxGeometry x="790" y="630" width="60" height="30" as="geometry" />
        </mxCell>
        <mxCell id="tbhvGhJTGy5tQaEqkJn1-85" value="" style="edgeStyle=orthogonalEdgeStyle;rounded=0;orthogonalLoop=1;jettySize=auto;html=1;" parent="1" source="tbhvGhJTGy5tQaEqkJn1-77" target="tbhvGhJTGy5tQaEqkJn1-84" edge="1">
          <mxGeometry relative="1" as="geometry" />
        </mxCell>
        <mxCell id="tbhvGhJTGy5tQaEqkJn1-77" value="forward write request" style="ellipse;whiteSpace=wrap;html=1;rounded=0;" parent="1" vertex="1">
          <mxGeometry x="690" y="500" width="80" height="80" as="geometry" />
        </mxCell>
        <mxCell id="tbhvGhJTGy5tQaEqkJn1-83" style="edgeStyle=orthogonalEdgeStyle;rounded=0;orthogonalLoop=1;jettySize=auto;html=1;exitX=0.5;exitY=1;exitDx=0;exitDy=0;entryX=0.5;entryY=1;entryDx=0;entryDy=0;" parent="1" source="tbhvGhJTGy5tQaEqkJn1-79" target="tbhvGhJTGy5tQaEqkJn1-68" edge="1">
          <mxGeometry relative="1" as="geometry" />
        </mxCell>
        <mxCell id="YZ16rwDsnffzLJnngZRJ-14" style="edgeStyle=orthogonalEdgeStyle;rounded=0;orthogonalLoop=1;jettySize=auto;html=1;exitX=0.5;exitY=0;exitDx=0;exitDy=0;entryX=0.5;entryY=1;entryDx=0;entryDy=0;" parent="1" source="tbhvGhJTGy5tQaEqkJn1-79" target="tbhvGhJTGy5tQaEqkJn1-77" edge="1">
          <mxGeometry relative="1" as="geometry" />
        </mxCell>
        <mxCell id="tbhvGhJTGy5tQaEqkJn1-79" value="copy is empty?" style="rhombus;whiteSpace=wrap;html=1;" parent="1" vertex="1">
          <mxGeometry x="980" y="620" width="80" height="80" as="geometry" />
        </mxCell>
        <mxCell id="tbhvGhJTGy5tQaEqkJn1-82" value="no" style="text;html=1;strokeColor=none;fillColor=none;align=center;verticalAlign=middle;whiteSpace=wrap;rounded=0;" parent="1" vertex="1">
          <mxGeometry x="1000" y="690" width="60" height="30" as="geometry" />
        </mxCell>
        <mxCell id="tbhvGhJTGy5tQaEqkJn1-90" value="" style="edgeStyle=orthogonalEdgeStyle;rounded=0;orthogonalLoop=1;jettySize=auto;html=1;" parent="1" source="tbhvGhJTGy5tQaEqkJn1-84" target="tbhvGhJTGy5tQaEqkJn1-89" edge="1">
          <mxGeometry relative="1" as="geometry" />
        </mxCell>
        <mxCell id="tbhvGhJTGy5tQaEqkJn1-84" value="wait for write confirm" style="ellipse;whiteSpace=wrap;html=1;rounded=0;" parent="1" vertex="1">
          <mxGeometry x="820" y="500" width="80" height="80" as="geometry" />
        </mxCell>
        <mxCell id="tbhvGhJTGy5tQaEqkJn1-87" value="" style="edgeStyle=orthogonalEdgeStyle;rounded=0;orthogonalLoop=1;jettySize=auto;html=1;" parent="1" source="tbhvGhJTGy5tQaEqkJn1-86" target="tbhvGhJTGy5tQaEqkJn1-66" edge="1">
          <mxGeometry relative="1" as="geometry" />
        </mxCell>
        <mxCell id="YZ16rwDsnffzLJnngZRJ-13" style="edgeStyle=orthogonalEdgeStyle;rounded=0;orthogonalLoop=1;jettySize=auto;html=1;exitX=1;exitY=0.5;exitDx=0;exitDy=0;entryX=0;entryY=0.5;entryDx=0;entryDy=0;" parent="1" source="tbhvGhJTGy5tQaEqkJn1-86" target="tbhvGhJTGy5tQaEqkJn1-77" edge="1">
          <mxGeometry relative="1" as="geometry" />
        </mxCell>
        <mxCell id="tbhvGhJTGy5tQaEqkJn1-86" value="pop head of queue" style="ellipse;whiteSpace=wrap;html=1;rounded=0;" parent="1" vertex="1">
          <mxGeometry x="550" y="500" width="80" height="80" as="geometry" />
        </mxCell>
        <mxCell id="tbhvGhJTGy5tQaEqkJn1-93" value="" style="edgeStyle=orthogonalEdgeStyle;rounded=0;orthogonalLoop=1;jettySize=auto;html=1;" parent="1" source="tbhvGhJTGy5tQaEqkJn1-89" target="tbhvGhJTGy5tQaEqkJn1-92" edge="1">
          <mxGeometry relative="1" as="geometry" />
        </mxCell>
        <mxCell id="tbhvGhJTGy5tQaEqkJn1-89" value="remove page&amp;nbsp; written mark&amp;nbsp;" style="ellipse;whiteSpace=wrap;html=1;rounded=0;" parent="1" vertex="1">
          <mxGeometry x="980" y="500" width="80" height="80" as="geometry" />
        </mxCell>
        <mxCell id="tbhvGhJTGy5tQaEqkJn1-91" value="rcv wr cfm" style="text;html=1;strokeColor=none;fillColor=none;align=center;verticalAlign=middle;whiteSpace=wrap;rounded=0;" parent="1" vertex="1">
          <mxGeometry x="910" y="510" width="60" height="30" as="geometry" />
        </mxCell>
        <mxCell id="tbhvGhJTGy5tQaEqkJn1-99" value="" style="edgeStyle=orthogonalEdgeStyle;rounded=0;orthogonalLoop=1;jettySize=auto;html=1;" parent="1" source="tbhvGhJTGy5tQaEqkJn1-92" target="tbhvGhJTGy5tQaEqkJn1-98" edge="1">
          <mxGeometry relative="1" as="geometry" />
        </mxCell>
        <mxCell id="tbhvGhJTGy5tQaEqkJn1-92" value="update page owner to be writer" style="ellipse;whiteSpace=wrap;html=1;rounded=0;" parent="1" vertex="1">
          <mxGeometry x="1090" y="500" width="80" height="80" as="geometry" />
        </mxCell>
        <mxCell id="tbhvGhJTGy5tQaEqkJn1-101" value="" style="edgeStyle=orthogonalEdgeStyle;rounded=0;orthogonalLoop=1;jettySize=auto;html=1;" parent="1" source="tbhvGhJTGy5tQaEqkJn1-98" target="tbhvGhJTGy5tQaEqkJn1-100" edge="1">
          <mxGeometry relative="1" as="geometry" />
        </mxCell>
        <mxCell id="tbhvGhJTGy5tQaEqkJn1-98" value="check page&#39;s queue" style="ellipse;whiteSpace=wrap;html=1;rounded=0;" parent="1" vertex="1">
          <mxGeometry x="1200" y="500" width="80" height="80" as="geometry" />
        </mxCell>
        <mxCell id="tbhvGhJTGy5tQaEqkJn1-117" style="edgeStyle=orthogonalEdgeStyle;rounded=0;orthogonalLoop=1;jettySize=auto;html=1;exitX=1;exitY=0.5;exitDx=0;exitDy=0;entryX=0;entryY=0.5;entryDx=0;entryDy=0;" parent="1" source="tbhvGhJTGy5tQaEqkJn1-100" target="tbhvGhJTGy5tQaEqkJn1-116" edge="1">
          <mxGeometry relative="1" as="geometry">
            <Array as="points">
              <mxPoint x="1465" y="540" />
              <mxPoint x="1465" y="540" />
            </Array>
          </mxGeometry>
        </mxCell>
        <mxCell id="YZ16rwDsnffzLJnngZRJ-11" style="edgeStyle=orthogonalEdgeStyle;rounded=0;orthogonalLoop=1;jettySize=auto;html=1;exitX=0.5;exitY=0;exitDx=0;exitDy=0;entryX=0.5;entryY=1;entryDx=0;entryDy=0;" parent="1" source="tbhvGhJTGy5tQaEqkJn1-100" target="YZ16rwDsnffzLJnngZRJ-5" edge="1">
          <mxGeometry relative="1" as="geometry">
            <Array as="points">
              <mxPoint x="1360" y="440" />
              <mxPoint x="385" y="440" />
            </Array>
          </mxGeometry>
        </mxCell>
        <mxCell id="tbhvGhJTGy5tQaEqkJn1-100" value="queue is empty?" style="rhombus;whiteSpace=wrap;html=1;rounded=0;" parent="1" vertex="1">
          <mxGeometry x="1320" y="500" width="80" height="80" as="geometry" />
        </mxCell>
        <mxCell id="tbhvGhJTGy5tQaEqkJn1-104" value="yes" style="text;html=1;strokeColor=none;fillColor=none;align=center;verticalAlign=middle;whiteSpace=wrap;rounded=0;" parent="1" vertex="1">
          <mxGeometry x="1390" y="510" width="60" height="30" as="geometry" />
        </mxCell>
        <mxCell id="tbhvGhJTGy5tQaEqkJn1-108" value="no" style="text;html=1;strokeColor=none;fillColor=none;align=center;verticalAlign=middle;whiteSpace=wrap;rounded=0;" parent="1" vertex="1">
          <mxGeometry x="1310" y="460" width="60" height="30" as="geometry" />
        </mxCell>
        <mxCell id="tbhvGhJTGy5tQaEqkJn1-112" value="exit" style="whiteSpace=wrap;html=1;rounded=0;" parent="1" vertex="1">
          <mxGeometry x="670" y="136" width="60" height="60" as="geometry" />
        </mxCell>
        <mxCell id="tbhvGhJTGy5tQaEqkJn1-116" value="exit" style="whiteSpace=wrap;html=1;rounded=0;" parent="1" vertex="1">
          <mxGeometry x="1450" y="510" width="60" height="60" as="geometry" />
        </mxCell>
        <mxCell id="tbhvGhJTGy5tQaEqkJn1-123" value="" style="edgeStyle=orthogonalEdgeStyle;rounded=0;orthogonalLoop=1;jettySize=auto;html=1;" parent="1" source="tbhvGhJTGy5tQaEqkJn1-120" target="tbhvGhJTGy5tQaEqkJn1-122" edge="1">
          <mxGeometry relative="1" as="geometry" />
        </mxCell>
        <mxCell id="tbhvGhJTGy5tQaEqkJn1-120" value="send page" style="ellipse;whiteSpace=wrap;html=1;rounded=0;" parent="1" vertex="1">
          <mxGeometry x="280" y="1530" width="80" height="80" as="geometry" />
        </mxCell>
        <mxCell id="tbhvGhJTGy5tQaEqkJn1-121" value="Rcv write forward" style="text;html=1;strokeColor=none;fillColor=none;align=center;verticalAlign=middle;whiteSpace=wrap;rounded=0;" parent="1" vertex="1">
          <mxGeometry x="210" y="1540" width="60" height="30" as="geometry" />
        </mxCell>
        <mxCell id="tbhvGhJTGy5tQaEqkJn1-132" value="" style="edgeStyle=orthogonalEdgeStyle;rounded=0;orthogonalLoop=1;jettySize=auto;html=1;" parent="1" source="tbhvGhJTGy5tQaEqkJn1-122" target="tbhvGhJTGy5tQaEqkJn1-131" edge="1">
          <mxGeometry relative="1" as="geometry" />
        </mxCell>
        <mxCell id="tbhvGhJTGy5tQaEqkJn1-122" value="mark access as nil" style="ellipse;whiteSpace=wrap;html=1;rounded=0;" parent="1" vertex="1">
          <mxGeometry x="395" y="1530" width="80" height="80" as="geometry" />
        </mxCell>
        <mxCell id="tbhvGhJTGy5tQaEqkJn1-127" value="exit" style="whiteSpace=wrap;html=1;rounded=0;" parent="1" vertex="1">
          <mxGeometry x="610" y="1060" width="60" height="60" as="geometry" />
        </mxCell>
        <mxCell id="tbhvGhJTGy5tQaEqkJn1-129" value="exit" style="whiteSpace=wrap;html=1;rounded=0;" parent="1" vertex="1">
          <mxGeometry x="395" y="1400" width="60" height="60" as="geometry" />
        </mxCell>
        <mxCell id="tbhvGhJTGy5tQaEqkJn1-131" value="exit" style="whiteSpace=wrap;html=1;rounded=0;" parent="1" vertex="1">
          <mxGeometry x="520" y="1540" width="60" height="60" as="geometry" />
        </mxCell>
        <mxCell id="tbhvGhJTGy5tQaEqkJn1-139" value="" style="edgeStyle=orthogonalEdgeStyle;rounded=0;orthogonalLoop=1;jettySize=auto;html=1;" parent="1" source="tbhvGhJTGy5tQaEqkJn1-134" target="tbhvGhJTGy5tQaEqkJn1-138" edge="1">
          <mxGeometry relative="1" as="geometry" />
        </mxCell>
        <mxCell id="tbhvGhJTGy5tQaEqkJn1-134" value="request to write page" style="ellipse;whiteSpace=wrap;html=1;rounded=0;" parent="1" vertex="1">
          <mxGeometry x="260" y="1235" width="80" height="80" as="geometry" />
        </mxCell>
        <mxCell id="tbhvGhJTGy5tQaEqkJn1-141" value="" style="edgeStyle=orthogonalEdgeStyle;rounded=0;orthogonalLoop=1;jettySize=auto;html=1;" parent="1" source="tbhvGhJTGy5tQaEqkJn1-138" target="tbhvGhJTGy5tQaEqkJn1-140" edge="1">
          <mxGeometry relative="1" as="geometry" />
        </mxCell>
        <mxCell id="tbhvGhJTGy5tQaEqkJn1-143" value="" style="edgeStyle=orthogonalEdgeStyle;rounded=0;orthogonalLoop=1;jettySize=auto;html=1;" parent="1" source="tbhvGhJTGy5tQaEqkJn1-138" target="tbhvGhJTGy5tQaEqkJn1-140" edge="1">
          <mxGeometry relative="1" as="geometry" />
        </mxCell>
        <mxCell id="tbhvGhJTGy5tQaEqkJn1-146" style="edgeStyle=orthogonalEdgeStyle;rounded=0;orthogonalLoop=1;jettySize=auto;html=1;exitX=1;exitY=0.5;exitDx=0;exitDy=0;entryX=0;entryY=0.5;entryDx=0;entryDy=0;" parent="1" source="tbhvGhJTGy5tQaEqkJn1-138" target="tbhvGhJTGy5tQaEqkJn1-145" edge="1">
          <mxGeometry relative="1" as="geometry" />
        </mxCell>
        <mxCell id="tbhvGhJTGy5tQaEqkJn1-138" value="I&#39;m owner?" style="rhombus;whiteSpace=wrap;html=1;rounded=0;" parent="1" vertex="1">
          <mxGeometry x="375" y="1235" width="80" height="80" as="geometry" />
        </mxCell>
        <mxCell id="tbhvGhJTGy5tQaEqkJn1-158" value="" style="edgeStyle=orthogonalEdgeStyle;rounded=0;orthogonalLoop=1;jettySize=auto;html=1;" parent="1" source="tbhvGhJTGy5tQaEqkJn1-140" target="tbhvGhJTGy5tQaEqkJn1-157" edge="1">
          <mxGeometry relative="1" as="geometry" />
        </mxCell>
        <mxCell id="tbhvGhJTGy5tQaEqkJn1-140" value="request manger" style="ellipse;whiteSpace=wrap;html=1;rounded=0;" parent="1" vertex="1">
          <mxGeometry x="500" y="1170" width="80" height="80" as="geometry" />
        </mxCell>
        <mxCell id="tbhvGhJTGy5tQaEqkJn1-142" value="yes" style="text;html=1;strokeColor=none;fillColor=none;align=center;verticalAlign=middle;whiteSpace=wrap;rounded=0;" parent="1" vertex="1">
          <mxGeometry x="430" y="1315" width="60" height="30" as="geometry" />
        </mxCell>
        <mxCell id="tbhvGhJTGy5tQaEqkJn1-149" value="" style="edgeStyle=orthogonalEdgeStyle;rounded=0;orthogonalLoop=1;jettySize=auto;html=1;" parent="1" source="tbhvGhJTGy5tQaEqkJn1-145" target="tbhvGhJTGy5tQaEqkJn1-148" edge="1">
          <mxGeometry relative="1" as="geometry" />
        </mxCell>
        <mxCell id="tbhvGhJTGy5tQaEqkJn1-145" value="write" style="ellipse;whiteSpace=wrap;html=1;rounded=0;" parent="1" vertex="1">
          <mxGeometry x="500" y="1310" width="80" height="80" as="geometry" />
        </mxCell>
        <mxCell id="tbhvGhJTGy5tQaEqkJn1-147" value="no" style="text;html=1;strokeColor=none;fillColor=none;align=center;verticalAlign=middle;whiteSpace=wrap;rounded=0;" parent="1" vertex="1">
          <mxGeometry x="430" y="1205" width="60" height="30" as="geometry" />
        </mxCell>
        <mxCell id="tbhvGhJTGy5tQaEqkJn1-148" value="exit" style="whiteSpace=wrap;html=1;rounded=0;" parent="1" vertex="1">
          <mxGeometry x="640" y="1320" width="60" height="60" as="geometry" />
        </mxCell>
        <mxCell id="tbhvGhJTGy5tQaEqkJn1-153" value="" style="edgeStyle=orthogonalEdgeStyle;rounded=0;orthogonalLoop=1;jettySize=auto;html=1;" parent="1" source="tbhvGhJTGy5tQaEqkJn1-150" target="tbhvGhJTGy5tQaEqkJn1-152" edge="1">
          <mxGeometry relative="1" as="geometry" />
        </mxCell>
        <mxCell id="tbhvGhJTGy5tQaEqkJn1-150" value="Read" style="ellipse;whiteSpace=wrap;html=1;rounded=0;" parent="1" vertex="1">
          <mxGeometry x="860" y="880" width="80" height="80" as="geometry" />
        </mxCell>
        <mxCell id="tbhvGhJTGy5tQaEqkJn1-156" value="" style="edgeStyle=orthogonalEdgeStyle;rounded=0;orthogonalLoop=1;jettySize=auto;html=1;" parent="1" source="tbhvGhJTGy5tQaEqkJn1-152" target="tbhvGhJTGy5tQaEqkJn1-155" edge="1">
          <mxGeometry relative="1" as="geometry" />
        </mxCell>
        <mxCell id="tbhvGhJTGy5tQaEqkJn1-152" value="Confirm to manager" style="ellipse;whiteSpace=wrap;html=1;rounded=0;" parent="1" vertex="1">
          <mxGeometry x="970" y="880" width="80" height="80" as="geometry" />
        </mxCell>
        <mxCell id="tbhvGhJTGy5tQaEqkJn1-155" value="exit" style="whiteSpace=wrap;html=1;rounded=0;" parent="1" vertex="1">
          <mxGeometry x="1080" y="890" width="60" height="60" as="geometry" />
        </mxCell>
        <mxCell id="tbhvGhJTGy5tQaEqkJn1-162" value="" style="edgeStyle=orthogonalEdgeStyle;rounded=0;orthogonalLoop=1;jettySize=auto;html=1;" parent="1" source="tbhvGhJTGy5tQaEqkJn1-157" target="tbhvGhJTGy5tQaEqkJn1-161" edge="1">
          <mxGeometry relative="1" as="geometry" />
        </mxCell>
        <mxCell id="tbhvGhJTGy5tQaEqkJn1-157" value="wait for page" style="ellipse;whiteSpace=wrap;html=1;rounded=0;" parent="1" vertex="1">
          <mxGeometry x="620" y="1170" width="80" height="80" as="geometry" />
        </mxCell>
        <mxCell id="tbhvGhJTGy5tQaEqkJn1-159" value="Rcv page" style="text;html=1;strokeColor=none;fillColor=none;align=center;verticalAlign=middle;whiteSpace=wrap;rounded=0;" parent="1" vertex="1">
          <mxGeometry x="700" y="1180" width="60" height="30" as="geometry" />
        </mxCell>
        <mxCell id="tbhvGhJTGy5tQaEqkJn1-164" value="" style="edgeStyle=orthogonalEdgeStyle;rounded=0;orthogonalLoop=1;jettySize=auto;html=1;" parent="1" source="tbhvGhJTGy5tQaEqkJn1-161" target="tbhvGhJTGy5tQaEqkJn1-163" edge="1">
          <mxGeometry relative="1" as="geometry" />
        </mxCell>
        <mxCell id="tbhvGhJTGy5tQaEqkJn1-161" value="cache page,&lt;br&gt;mark access as RW(owner)" style="ellipse;whiteSpace=wrap;html=1;rounded=0;" parent="1" vertex="1">
          <mxGeometry x="760" y="1170" width="90" height="80" as="geometry" />
        </mxCell>
        <mxCell id="tbhvGhJTGy5tQaEqkJn1-166" value="" style="edgeStyle=orthogonalEdgeStyle;rounded=0;orthogonalLoop=1;jettySize=auto;html=1;" parent="1" source="tbhvGhJTGy5tQaEqkJn1-163" target="tbhvGhJTGy5tQaEqkJn1-165" edge="1">
          <mxGeometry relative="1" as="geometry" />
        </mxCell>
        <mxCell id="tbhvGhJTGy5tQaEqkJn1-163" value="Write" style="ellipse;whiteSpace=wrap;html=1;rounded=0;" parent="1" vertex="1">
          <mxGeometry x="880" y="1170" width="80" height="80" as="geometry" />
        </mxCell>
        <mxCell id="tbhvGhJTGy5tQaEqkJn1-165" value="exit" style="whiteSpace=wrap;html=1;rounded=0;" parent="1" vertex="1">
          <mxGeometry x="1000" y="1180" width="60" height="60" as="geometry" />
        </mxCell>
        <mxCell id="YZ16rwDsnffzLJnngZRJ-6" value="" style="edgeStyle=orthogonalEdgeStyle;rounded=0;orthogonalLoop=1;jettySize=auto;html=1;" parent="1" source="_W4VezqcyxMWy2lPJJjb-1" target="YZ16rwDsnffzLJnngZRJ-5" edge="1">
          <mxGeometry relative="1" as="geometry" />
        </mxCell>
        <mxCell id="_W4VezqcyxMWy2lPJJjb-1" value="put in queue" style="ellipse;whiteSpace=wrap;html=1;aspect=fixed;" parent="1" vertex="1">
          <mxGeometry x="240" y="340" width="80" height="80" as="geometry" />
        </mxCell>
        <mxCell id="_W4VezqcyxMWy2lPJJjb-20" value="" style="edgeStyle=orthogonalEdgeStyle;rounded=0;orthogonalLoop=1;jettySize=auto;html=1;" parent="1" source="_W4VezqcyxMWy2lPJJjb-18" target="tbhvGhJTGy5tQaEqkJn1-86" edge="1">
          <mxGeometry relative="1" as="geometry" />
        </mxCell>
        <mxCell id="_W4VezqcyxMWy2lPJJjb-18" value="mark page as being written" style="ellipse;whiteSpace=wrap;html=1;rounded=0;" parent="1" vertex="1">
          <mxGeometry x="435" y="500" width="80" height="80" as="geometry" />
        </mxCell>
        <mxCell id="_W4VezqcyxMWy2lPJJjb-31" value="" style="edgeStyle=orthogonalEdgeStyle;rounded=0;orthogonalLoop=1;jettySize=auto;html=1;" parent="1" source="_W4VezqcyxMWy2lPJJjb-27" target="_W4VezqcyxMWy2lPJJjb-30" edge="1">
          <mxGeometry relative="1" as="geometry" />
        </mxCell>
        <mxCell id="_W4VezqcyxMWy2lPJJjb-27" value="invalidate cache" style="ellipse;whiteSpace=wrap;html=1;rounded=0;" parent="1" vertex="1">
          <mxGeometry x="280" y="1680" width="80" height="80" as="geometry" />
        </mxCell>
        <mxCell id="_W4VezqcyxMWy2lPJJjb-29" value="Rcv inv req" style="text;html=1;strokeColor=none;fillColor=none;align=center;verticalAlign=middle;whiteSpace=wrap;rounded=0;" parent="1" vertex="1">
          <mxGeometry x="205" y="1690" width="60" height="30" as="geometry" />
        </mxCell>
        <mxCell id="_W4VezqcyxMWy2lPJJjb-30" value="exit" style="whiteSpace=wrap;html=1;rounded=0;" parent="1" vertex="1">
          <mxGeometry x="395" y="1690" width="60" height="60" as="geometry" />
        </mxCell>
        <mxCell id="_W4VezqcyxMWy2lPJJjb-38" style="edgeStyle=orthogonalEdgeStyle;rounded=0;orthogonalLoop=1;jettySize=auto;html=1;exitX=1;exitY=0.5;exitDx=0;exitDy=0;entryX=0;entryY=0.5;entryDx=0;entryDy=0;" parent="1" source="_W4VezqcyxMWy2lPJJjb-32" target="_W4VezqcyxMWy2lPJJjb-18" edge="1">
          <mxGeometry relative="1" as="geometry" />
        </mxCell>
        <mxCell id="YZ16rwDsnffzLJnngZRJ-8" style="edgeStyle=orthogonalEdgeStyle;rounded=0;orthogonalLoop=1;jettySize=auto;html=1;exitX=1;exitY=0.5;exitDx=0;exitDy=0;" parent="1" source="_W4VezqcyxMWy2lPJJjb-32" edge="1">
          <mxGeometry relative="1" as="geometry">
            <mxPoint x="370" y="620" as="targetPoint" />
          </mxGeometry>
        </mxCell>
        <mxCell id="_W4VezqcyxMWy2lPJJjb-32" value="check if being written" style="rhombus;whiteSpace=wrap;html=1;" parent="1" vertex="1">
          <mxGeometry x="240" y="500" width="80" height="80" as="geometry" />
        </mxCell>
        <mxCell id="_W4VezqcyxMWy2lPJJjb-36" value="yes" style="text;html=1;strokeColor=none;fillColor=none;align=center;verticalAlign=middle;whiteSpace=wrap;rounded=0;" parent="1" vertex="1">
          <mxGeometry x="315" y="565" width="60" height="30" as="geometry" />
        </mxCell>
        <mxCell id="_W4VezqcyxMWy2lPJJjb-37" value="no" style="text;html=1;strokeColor=none;fillColor=none;align=center;verticalAlign=middle;whiteSpace=wrap;rounded=0;" parent="1" vertex="1">
          <mxGeometry x="375" y="510" width="60" height="30" as="geometry" />
        </mxCell>
        <mxCell id="_W4VezqcyxMWy2lPJJjb-39" value="exit" style="whiteSpace=wrap;html=1;rounded=0;" parent="1" vertex="1">
          <mxGeometry x="470" y="350" width="60" height="60" as="geometry" />
        </mxCell>
        <mxCell id="_W4VezqcyxMWy2lPJJjb-41" value="if no copy" style="text;html=1;strokeColor=none;fillColor=none;align=center;verticalAlign=middle;whiteSpace=wrap;rounded=0;" parent="1" vertex="1">
          <mxGeometry x="638" y="471.86" width="60" height="30" as="geometry" />
        </mxCell>
        <mxCell id="_W4VezqcyxMWy2lPJJjb-42" value="if got copy" style="text;html=1;strokeColor=none;fillColor=none;align=center;verticalAlign=middle;whiteSpace=wrap;rounded=0;" parent="1" vertex="1">
          <mxGeometry x="590" y="581.86" width="60" height="30" as="geometry" />
        </mxCell>
        <mxCell id="YZ16rwDsnffzLJnngZRJ-3" value="rcv signal" style="text;html=1;strokeColor=none;fillColor=none;align=center;verticalAlign=middle;whiteSpace=wrap;rounded=0;" parent="1" vertex="1">
          <mxGeometry x="140" y="510" width="80" height="30" as="geometry" />
        </mxCell>
        <mxCell id="YZ16rwDsnffzLJnngZRJ-7" value="" style="edgeStyle=orthogonalEdgeStyle;rounded=0;orthogonalLoop=1;jettySize=auto;html=1;" parent="1" source="YZ16rwDsnffzLJnngZRJ-5" target="_W4VezqcyxMWy2lPJJjb-39" edge="1">
          <mxGeometry relative="1" as="geometry" />
        </mxCell>
        <mxCell id="YZ16rwDsnffzLJnngZRJ-5" value="send signal" style="ellipse;whiteSpace=wrap;html=1;aspect=fixed;" parent="1" vertex="1">
          <mxGeometry x="345" y="340" width="80" height="80" as="geometry" />
        </mxCell>
        <mxCell id="YZ16rwDsnffzLJnngZRJ-9" value="exit" style="whiteSpace=wrap;html=1;rounded=0;" parent="1" vertex="1">
          <mxGeometry x="345" y="620" width="60" height="60" as="geometry" />
        </mxCell>
      </root>
    </mxGraphModel>
  </diagram>
  <diagram name="ft" id="GsaYNJpen1qb-eRR79Rk">
    <mxGraphModel dx="1644" dy="1524" grid="1" gridSize="10" guides="1" tooltips="1" connect="1" arrows="1" fold="1" page="1" pageScale="1" pageWidth="850" pageHeight="1100" math="0" shadow="0">
      <root>
        <mxCell id="jL2-e-lXBzged_xy8-4M-0" />
        <mxCell id="jL2-e-lXBzged_xy8-4M-1" parent="jL2-e-lXBzged_xy8-4M-0" />
        <mxCell id="jL2-e-lXBzged_xy8-4M-2" value="" style="edgeStyle=orthogonalEdgeStyle;rounded=0;orthogonalLoop=1;jettySize=auto;html=1;" parent="jL2-e-lXBzged_xy8-4M-1" source="jL2-e-lXBzged_xy8-4M-5" target="jL2-e-lXBzged_xy8-4M-11" edge="1">
          <mxGeometry relative="1" as="geometry" />
        </mxCell>
        <mxCell id="jL2-e-lXBzged_xy8-4M-3" style="edgeStyle=orthogonalEdgeStyle;rounded=0;orthogonalLoop=1;jettySize=auto;html=1;exitX=0.5;exitY=1;exitDx=0;exitDy=0;entryX=0;entryY=0.5;entryDx=0;entryDy=0;" parent="jL2-e-lXBzged_xy8-4M-1" source="jL2-e-lXBzged_xy8-4M-5" target="jL2-e-lXBzged_xy8-4M-123" edge="1">
          <mxGeometry relative="1" as="geometry" />
        </mxCell>
        <mxCell id="jL2-e-lXBzged_xy8-4M-4" value="" style="edgeStyle=orthogonalEdgeStyle;rounded=0;orthogonalLoop=1;jettySize=auto;html=1;entryX=0;entryY=0.5;entryDx=0;entryDy=0;" parent="jL2-e-lXBzged_xy8-4M-1" source="jL2-e-lXBzged_xy8-4M-5" target="jL2-e-lXBzged_xy8-4M-132" edge="1">
          <mxGeometry relative="1" as="geometry">
            <mxPoint x="240" y="539.9999999999998" as="targetPoint" />
            <Array as="points">
              <mxPoint x="135" y="480" />
            </Array>
          </mxGeometry>
        </mxCell>
        <mxCell id="jL2-e-lXBzged_xy8-4M-5" value="idle" style="ellipse;whiteSpace=wrap;html=1;rounded=0;" parent="jL2-e-lXBzged_xy8-4M-1" vertex="1">
          <mxGeometry x="95" y="126" width="80" height="80" as="geometry" />
        </mxCell>
        <mxCell id="jL2-e-lXBzged_xy8-4M-6" value="Manager" style="swimlane;fontStyle=1;align=center;verticalAlign=top;childLayout=stackLayout;horizontal=1;startSize=26;horizontalStack=0;resizeParent=1;resizeParentMax=0;resizeLast=0;collapsible=1;marginBottom=0;whiteSpace=wrap;html=1;" parent="jL2-e-lXBzged_xy8-4M-1" vertex="1">
          <mxGeometry x="-150" y="120" width="160" height="86" as="geometry" />
        </mxCell>
        <mxCell id="jL2-e-lXBzged_xy8-4M-7" value="+ records: []ManagerRecord" style="text;strokeColor=none;fillColor=none;align=left;verticalAlign=top;spacingLeft=4;spacingRight=4;overflow=hidden;rotatable=0;points=[[0,0.5],[1,0.5]];portConstraint=eastwest;whiteSpace=wrap;html=1;" parent="jL2-e-lXBzged_xy8-4M-6" vertex="1">
          <mxGeometry y="26" width="160" height="26" as="geometry" />
        </mxCell>
        <mxCell id="jL2-e-lXBzged_xy8-4M-8" value="" style="line;strokeWidth=1;fillColor=none;align=left;verticalAlign=middle;spacingTop=-1;spacingLeft=3;spacingRight=3;rotatable=0;labelPosition=right;points=[];portConstraint=eastwest;strokeColor=inherit;" parent="jL2-e-lXBzged_xy8-4M-6" vertex="1">
          <mxGeometry y="52" width="160" height="8" as="geometry" />
        </mxCell>
        <mxCell id="jL2-e-lXBzged_xy8-4M-9" value="+ method(type): type" style="text;strokeColor=none;fillColor=none;align=left;verticalAlign=top;spacingLeft=4;spacingRight=4;overflow=hidden;rotatable=0;points=[[0,0.5],[1,0.5]];portConstraint=eastwest;whiteSpace=wrap;html=1;" parent="jL2-e-lXBzged_xy8-4M-6" vertex="1">
          <mxGeometry y="60" width="160" height="26" as="geometry" />
        </mxCell>
        <mxCell id="jL2-e-lXBzged_xy8-4M-10" value="" style="edgeStyle=orthogonalEdgeStyle;rounded=0;orthogonalLoop=1;jettySize=auto;html=1;" parent="jL2-e-lXBzged_xy8-4M-1" source="jL2-e-lXBzged_xy8-4M-11" target="jL2-e-lXBzged_xy8-4M-50" edge="1">
          <mxGeometry relative="1" as="geometry" />
        </mxCell>
        <mxCell id="jL2-e-lXBzged_xy8-4M-11" value="foward read&amp;nbsp;" style="ellipse;whiteSpace=wrap;html=1;rounded=0;" parent="jL2-e-lXBzged_xy8-4M-1" vertex="1">
          <mxGeometry x="260" y="126" width="80" height="80" as="geometry" />
        </mxCell>
        <mxCell id="jL2-e-lXBzged_xy8-4M-12" value="Server" style="swimlane;fontStyle=1;align=center;verticalAlign=top;childLayout=stackLayout;horizontal=1;startSize=26;horizontalStack=0;resizeParent=1;resizeParentMax=0;resizeLast=0;collapsible=1;marginBottom=0;whiteSpace=wrap;html=1;" parent="jL2-e-lXBzged_xy8-4M-1" vertex="1">
          <mxGeometry x="-198.75" y="780" width="280" height="242" as="geometry" />
        </mxCell>
        <mxCell id="jL2-e-lXBzged_xy8-4M-13" value="+ records: []ServerRecord&lt;br&gt;" style="text;strokeColor=none;fillColor=none;align=left;verticalAlign=top;spacingLeft=4;spacingRight=4;overflow=hidden;rotatable=0;points=[[0,0.5],[1,0.5]];portConstraint=eastwest;whiteSpace=wrap;html=1;" parent="jL2-e-lXBzged_xy8-4M-12" vertex="1">
          <mxGeometry y="26" width="280" height="26" as="geometry" />
        </mxCell>
        <mxCell id="jL2-e-lXBzged_xy8-4M-14" value="+ cache: []Page" style="text;strokeColor=none;fillColor=none;align=left;verticalAlign=top;spacingLeft=4;spacingRight=4;overflow=hidden;rotatable=0;points=[[0,0.5],[1,0.5]];portConstraint=eastwest;whiteSpace=wrap;html=1;" parent="jL2-e-lXBzged_xy8-4M-12" vertex="1">
          <mxGeometry y="52" width="280" height="26" as="geometry" />
        </mxCell>
        <mxCell id="jL2-e-lXBzged_xy8-4M-15" value="" style="line;strokeWidth=1;fillColor=none;align=left;verticalAlign=middle;spacingTop=-1;spacingLeft=3;spacingRight=3;rotatable=0;labelPosition=right;points=[];portConstraint=eastwest;strokeColor=inherit;" parent="jL2-e-lXBzged_xy8-4M-12" vertex="1">
          <mxGeometry y="78" width="280" height="8" as="geometry" />
        </mxCell>
        <mxCell id="jL2-e-lXBzged_xy8-4M-16" value="+ read(page_num int): Page" style="text;strokeColor=none;fillColor=none;align=left;verticalAlign=top;spacingLeft=4;spacingRight=4;overflow=hidden;rotatable=0;points=[[0,0.5],[1,0.5]];portConstraint=eastwest;whiteSpace=wrap;html=1;" parent="jL2-e-lXBzged_xy8-4M-12" vertex="1">
          <mxGeometry y="86" width="280" height="26" as="geometry" />
        </mxCell>
        <mxCell id="jL2-e-lXBzged_xy8-4M-17" value="+ write(page_num int): Page" style="text;strokeColor=none;fillColor=none;align=left;verticalAlign=top;spacingLeft=4;spacingRight=4;overflow=hidden;rotatable=0;points=[[0,0.5],[1,0.5]];portConstraint=eastwest;whiteSpace=wrap;html=1;" parent="jL2-e-lXBzged_xy8-4M-12" vertex="1">
          <mxGeometry y="112" width="280" height="26" as="geometry" />
        </mxCell>
        <mxCell id="jL2-e-lXBzged_xy8-4M-18" value="+ reqRead(page_num int)" style="text;strokeColor=none;fillColor=none;align=left;verticalAlign=top;spacingLeft=4;spacingRight=4;overflow=hidden;rotatable=0;points=[[0,0.5],[1,0.5]];portConstraint=eastwest;whiteSpace=wrap;html=1;" parent="jL2-e-lXBzged_xy8-4M-12" vertex="1">
          <mxGeometry y="138" width="280" height="26" as="geometry" />
        </mxCell>
        <mxCell id="jL2-e-lXBzged_xy8-4M-19" value="+ reqWrite(page_num int)" style="text;strokeColor=none;fillColor=none;align=left;verticalAlign=top;spacingLeft=4;spacingRight=4;overflow=hidden;rotatable=0;points=[[0,0.5],[1,0.5]];portConstraint=eastwest;whiteSpace=wrap;html=1;" parent="jL2-e-lXBzged_xy8-4M-12" vertex="1">
          <mxGeometry y="164" width="280" height="26" as="geometry" />
        </mxCell>
        <mxCell id="jL2-e-lXBzged_xy8-4M-20" value="+ invalidateCache(page_num int)" style="text;strokeColor=none;fillColor=none;align=left;verticalAlign=top;spacingLeft=4;spacingRight=4;overflow=hidden;rotatable=0;points=[[0,0.5],[1,0.5]];portConstraint=eastwest;whiteSpace=wrap;html=1;" parent="jL2-e-lXBzged_xy8-4M-12" vertex="1">
          <mxGeometry y="190" width="280" height="26" as="geometry" />
        </mxCell>
        <mxCell id="jL2-e-lXBzged_xy8-4M-21" value="+ updateCache(page_num int, page Page)" style="text;strokeColor=none;fillColor=none;align=left;verticalAlign=top;spacingLeft=4;spacingRight=4;overflow=hidden;rotatable=0;points=[[0,0.5],[1,0.5]];portConstraint=eastwest;whiteSpace=wrap;html=1;" parent="jL2-e-lXBzged_xy8-4M-12" vertex="1">
          <mxGeometry y="216" width="280" height="26" as="geometry" />
        </mxCell>
        <mxCell id="jL2-e-lXBzged_xy8-4M-22" value="&lt;div&gt;Only one machine can write a page at a time&lt;/div&gt;&lt;div&gt;All write requests to a page are serviced FIFO&lt;/div&gt;&lt;div&gt;&lt;div&gt;(Exclusive) Each page has at most one owner at a time&lt;/div&gt;&lt;div&gt;(Invalidation) Write protocol ensures all cached pages to be invalidated&lt;/div&gt;&lt;div&gt;(Claiming Ownership) A machine wish to write a page needs to claim ownership&lt;/div&gt;&lt;/div&gt;&lt;div&gt;&lt;br&gt;&lt;/div&gt;" style="text;html=1;strokeColor=none;fillColor=none;align=left;verticalAlign=middle;whiteSpace=wrap;rounded=0;" parent="jL2-e-lXBzged_xy8-4M-1" vertex="1">
          <mxGeometry x="-200" y="-60" width="330" height="140" as="geometry" />
        </mxCell>
        <mxCell id="jL2-e-lXBzged_xy8-4M-23" value="" style="edgeStyle=orthogonalEdgeStyle;rounded=0;orthogonalLoop=1;jettySize=auto;html=1;exitX=0.5;exitY=1;exitDx=0;exitDy=0;entryX=-0.012;entryY=0.589;entryDx=0;entryDy=0;entryPerimeter=0;" parent="jL2-e-lXBzged_xy8-4M-1" source="jL2-e-lXBzged_xy8-4M-28" target="jL2-e-lXBzged_xy8-4M-30" edge="1">
          <mxGeometry relative="1" as="geometry">
            <Array as="points">
              <mxPoint x="181.25" y="932" />
            </Array>
          </mxGeometry>
        </mxCell>
        <mxCell id="jL2-e-lXBzged_xy8-4M-24" value="" style="edgeStyle=orthogonalEdgeStyle;rounded=0;orthogonalLoop=1;jettySize=auto;html=1;exitX=0.5;exitY=1;exitDx=0;exitDy=0;" parent="jL2-e-lXBzged_xy8-4M-1" source="jL2-e-lXBzged_xy8-4M-28" target="jL2-e-lXBzged_xy8-4M-42" edge="1">
          <mxGeometry relative="1" as="geometry">
            <Array as="points">
              <mxPoint x="181.25" y="1340" />
            </Array>
          </mxGeometry>
        </mxCell>
        <mxCell id="jL2-e-lXBzged_xy8-4M-25" style="edgeStyle=orthogonalEdgeStyle;rounded=0;orthogonalLoop=1;jettySize=auto;html=1;exitX=0.5;exitY=1;exitDx=0;exitDy=0;entryX=0;entryY=0.5;entryDx=0;entryDy=0;" parent="jL2-e-lXBzged_xy8-4M-1" source="jL2-e-lXBzged_xy8-4M-28" target="jL2-e-lXBzged_xy8-4M-89" edge="1">
          <mxGeometry relative="1" as="geometry">
            <mxPoint x="241.25" y="1262.2857142857142" as="targetPoint" />
            <Array as="points">
              <mxPoint x="181.25" y="1480" />
            </Array>
          </mxGeometry>
        </mxCell>
        <mxCell id="jL2-e-lXBzged_xy8-4M-26" style="edgeStyle=orthogonalEdgeStyle;rounded=0;orthogonalLoop=1;jettySize=auto;html=1;exitX=0.5;exitY=1;exitDx=0;exitDy=0;entryX=0;entryY=0.5;entryDx=0;entryDy=0;" parent="jL2-e-lXBzged_xy8-4M-1" source="jL2-e-lXBzged_xy8-4M-28" target="jL2-e-lXBzged_xy8-4M-97" edge="1">
          <mxGeometry relative="1" as="geometry" />
        </mxCell>
        <mxCell id="jL2-e-lXBzged_xy8-4M-27" style="edgeStyle=orthogonalEdgeStyle;rounded=0;orthogonalLoop=1;jettySize=auto;html=1;exitX=0.5;exitY=1;exitDx=0;exitDy=0;entryX=0;entryY=0.5;entryDx=0;entryDy=0;" parent="jL2-e-lXBzged_xy8-4M-1" source="jL2-e-lXBzged_xy8-4M-28" target="jL2-e-lXBzged_xy8-4M-127" edge="1">
          <mxGeometry relative="1" as="geometry" />
        </mxCell>
        <mxCell id="jL2-e-lXBzged_xy8-4M-28" value="idle" style="ellipse;whiteSpace=wrap;html=1;rounded=0;" parent="jL2-e-lXBzged_xy8-4M-1" vertex="1">
          <mxGeometry x="141.25" y="790" width="80" height="80" as="geometry" />
        </mxCell>
        <mxCell id="jL2-e-lXBzged_xy8-4M-29" value="" style="edgeStyle=orthogonalEdgeStyle;rounded=0;orthogonalLoop=1;jettySize=auto;html=1;" parent="jL2-e-lXBzged_xy8-4M-1" source="jL2-e-lXBzged_xy8-4M-30" target="jL2-e-lXBzged_xy8-4M-33" edge="1">
          <mxGeometry relative="1" as="geometry" />
        </mxCell>
        <mxCell id="jL2-e-lXBzged_xy8-4M-30" value="request to read page" style="ellipse;whiteSpace=wrap;html=1;rounded=0;" parent="jL2-e-lXBzged_xy8-4M-1" vertex="1">
          <mxGeometry x="251.25" y="885" width="80" height="80" as="geometry" />
        </mxCell>
        <mxCell id="jL2-e-lXBzged_xy8-4M-31" value="" style="edgeStyle=orthogonalEdgeStyle;rounded=0;orthogonalLoop=1;jettySize=auto;html=1;" parent="jL2-e-lXBzged_xy8-4M-1" source="jL2-e-lXBzged_xy8-4M-33" target="jL2-e-lXBzged_xy8-4M-35" edge="1">
          <mxGeometry relative="1" as="geometry">
            <Array as="points">
              <mxPoint x="461.25" y="925" />
              <mxPoint x="461.25" y="830" />
            </Array>
          </mxGeometry>
        </mxCell>
        <mxCell id="jL2-e-lXBzged_xy8-4M-32" value="" style="edgeStyle=orthogonalEdgeStyle;rounded=0;orthogonalLoop=1;jettySize=auto;html=1;" parent="jL2-e-lXBzged_xy8-4M-1" source="jL2-e-lXBzged_xy8-4M-33" target="jL2-e-lXBzged_xy8-4M-38" edge="1">
          <mxGeometry relative="1" as="geometry">
            <Array as="points">
              <mxPoint x="461.25" y="925" />
              <mxPoint x="461.25" y="1000" />
            </Array>
          </mxGeometry>
        </mxCell>
        <mxCell id="jL2-e-lXBzged_xy8-4M-33" value="found in&lt;br&gt;&amp;nbsp;local?" style="rhombus;whiteSpace=wrap;html=1;rounded=0;" parent="jL2-e-lXBzged_xy8-4M-1" vertex="1">
          <mxGeometry x="356.25" y="885" width="80" height="80" as="geometry" />
        </mxCell>
        <mxCell id="jL2-e-lXBzged_xy8-4M-34" value="" style="edgeStyle=orthogonalEdgeStyle;rounded=0;orthogonalLoop=1;jettySize=auto;html=1;" parent="jL2-e-lXBzged_xy8-4M-1" source="jL2-e-lXBzged_xy8-4M-35" target="jL2-e-lXBzged_xy8-4M-45" edge="1">
          <mxGeometry relative="1" as="geometry" />
        </mxCell>
        <mxCell id="jL2-e-lXBzged_xy8-4M-35" value="request manger" style="ellipse;whiteSpace=wrap;html=1;rounded=0;" parent="jL2-e-lXBzged_xy8-4M-1" vertex="1">
          <mxGeometry x="481.25" y="790" width="80" height="80" as="geometry" />
        </mxCell>
        <mxCell id="jL2-e-lXBzged_xy8-4M-36" value="No" style="text;html=1;strokeColor=none;fillColor=none;align=center;verticalAlign=middle;whiteSpace=wrap;rounded=0;" parent="jL2-e-lXBzged_xy8-4M-1" vertex="1">
          <mxGeometry x="411.25" y="855" width="60" height="30" as="geometry" />
        </mxCell>
        <mxCell id="jL2-e-lXBzged_xy8-4M-37" value="" style="edgeStyle=orthogonalEdgeStyle;rounded=0;orthogonalLoop=1;jettySize=auto;html=1;" parent="jL2-e-lXBzged_xy8-4M-1" source="jL2-e-lXBzged_xy8-4M-38" target="jL2-e-lXBzged_xy8-4M-93" edge="1">
          <mxGeometry relative="1" as="geometry" />
        </mxCell>
        <mxCell id="jL2-e-lXBzged_xy8-4M-38" value="Read" style="ellipse;whiteSpace=wrap;html=1;rounded=0;" parent="jL2-e-lXBzged_xy8-4M-1" vertex="1">
          <mxGeometry x="491.25" y="960" width="80" height="80" as="geometry" />
        </mxCell>
        <mxCell id="jL2-e-lXBzged_xy8-4M-39" value="yes" style="text;html=1;strokeColor=none;fillColor=none;align=center;verticalAlign=middle;whiteSpace=wrap;rounded=0;" parent="jL2-e-lXBzged_xy8-4M-1" vertex="1">
          <mxGeometry x="411.25" y="950" width="60" height="30" as="geometry" />
        </mxCell>
        <mxCell id="jL2-e-lXBzged_xy8-4M-40" value="rcv read req" style="text;html=1;strokeColor=none;fillColor=none;align=center;verticalAlign=middle;whiteSpace=wrap;rounded=0;" parent="jL2-e-lXBzged_xy8-4M-1" vertex="1">
          <mxGeometry x="175" y="140" width="80" height="30" as="geometry" />
        </mxCell>
        <mxCell id="jL2-e-lXBzged_xy8-4M-41" value="" style="edgeStyle=orthogonalEdgeStyle;rounded=0;orthogonalLoop=1;jettySize=auto;html=1;" parent="jL2-e-lXBzged_xy8-4M-1" source="jL2-e-lXBzged_xy8-4M-42" target="jL2-e-lXBzged_xy8-4M-94" edge="1">
          <mxGeometry relative="1" as="geometry" />
        </mxCell>
        <mxCell id="jL2-e-lXBzged_xy8-4M-42" value="send page" style="ellipse;whiteSpace=wrap;html=1;rounded=0;" parent="jL2-e-lXBzged_xy8-4M-1" vertex="1">
          <mxGeometry x="271.25" y="1300" width="80" height="80" as="geometry" />
        </mxCell>
        <mxCell id="jL2-e-lXBzged_xy8-4M-43" value="Rcv read forward" style="text;html=1;strokeColor=none;fillColor=none;align=center;verticalAlign=middle;whiteSpace=wrap;rounded=0;" parent="jL2-e-lXBzged_xy8-4M-1" vertex="1">
          <mxGeometry x="201.25" y="1300" width="60" height="30" as="geometry" />
        </mxCell>
        <mxCell id="jL2-e-lXBzged_xy8-4M-44" value="" style="edgeStyle=orthogonalEdgeStyle;rounded=0;orthogonalLoop=1;jettySize=auto;html=1;" parent="jL2-e-lXBzged_xy8-4M-1" source="jL2-e-lXBzged_xy8-4M-45" target="jL2-e-lXBzged_xy8-4M-48" edge="1">
          <mxGeometry relative="1" as="geometry" />
        </mxCell>
        <mxCell id="jNB-9HegVFgoDkUqay4e-40" style="edgeStyle=orthogonalEdgeStyle;rounded=0;orthogonalLoop=1;jettySize=auto;html=1;exitX=0.5;exitY=1;exitDx=0;exitDy=0;entryX=0.5;entryY=1;entryDx=0;entryDy=0;" parent="jL2-e-lXBzged_xy8-4M-1" source="jL2-e-lXBzged_xy8-4M-45" target="jL2-e-lXBzged_xy8-4M-35" edge="1">
          <mxGeometry relative="1" as="geometry" />
        </mxCell>
        <mxCell id="jL2-e-lXBzged_xy8-4M-45" value="wait for page" style="ellipse;whiteSpace=wrap;html=1;rounded=0;" parent="jL2-e-lXBzged_xy8-4M-1" vertex="1">
          <mxGeometry x="601.25" y="790" width="80" height="80" as="geometry" />
        </mxCell>
        <mxCell id="jL2-e-lXBzged_xy8-4M-46" value="Rcv page" style="text;html=1;strokeColor=none;fillColor=none;align=center;verticalAlign=middle;whiteSpace=wrap;rounded=0;" parent="jL2-e-lXBzged_xy8-4M-1" vertex="1">
          <mxGeometry x="681.25" y="800" width="60" height="30" as="geometry" />
        </mxCell>
        <mxCell id="jL2-e-lXBzged_xy8-4M-47" value="" style="edgeStyle=orthogonalEdgeStyle;rounded=0;orthogonalLoop=1;jettySize=auto;html=1;" parent="jL2-e-lXBzged_xy8-4M-1" source="jL2-e-lXBzged_xy8-4M-48" target="jL2-e-lXBzged_xy8-4M-110" edge="1">
          <mxGeometry relative="1" as="geometry" />
        </mxCell>
        <mxCell id="jL2-e-lXBzged_xy8-4M-48" value="cache page, mark access as read" style="ellipse;whiteSpace=wrap;html=1;rounded=0;" parent="jL2-e-lXBzged_xy8-4M-1" vertex="1">
          <mxGeometry x="741.25" y="790" width="80" height="80" as="geometry" />
        </mxCell>
        <mxCell id="jL2-e-lXBzged_xy8-4M-49" value="" style="edgeStyle=orthogonalEdgeStyle;rounded=0;orthogonalLoop=1;jettySize=auto;html=1;" parent="jL2-e-lXBzged_xy8-4M-1" source="jL2-e-lXBzged_xy8-4M-50" target="jL2-e-lXBzged_xy8-4M-52" edge="1">
          <mxGeometry relative="1" as="geometry" />
        </mxCell>
        <mxCell id="jNB-9HegVFgoDkUqay4e-43" style="edgeStyle=orthogonalEdgeStyle;rounded=0;orthogonalLoop=1;jettySize=auto;html=1;exitX=0.5;exitY=1;exitDx=0;exitDy=0;entryX=0.5;entryY=1;entryDx=0;entryDy=0;" parent="jL2-e-lXBzged_xy8-4M-1" source="jL2-e-lXBzged_xy8-4M-50" target="jL2-e-lXBzged_xy8-4M-11" edge="1">
          <mxGeometry relative="1" as="geometry" />
        </mxCell>
        <mxCell id="jL2-e-lXBzged_xy8-4M-50" value="wait for read confirm" style="ellipse;whiteSpace=wrap;html=1;rounded=0;" parent="jL2-e-lXBzged_xy8-4M-1" vertex="1">
          <mxGeometry x="390" y="126" width="80" height="80" as="geometry" />
        </mxCell>
        <mxCell id="jL2-e-lXBzged_xy8-4M-51" value="" style="edgeStyle=orthogonalEdgeStyle;rounded=0;orthogonalLoop=1;jettySize=auto;html=1;" parent="jL2-e-lXBzged_xy8-4M-1" source="jL2-e-lXBzged_xy8-4M-52" target="jL2-e-lXBzged_xy8-4M-86" edge="1">
          <mxGeometry relative="1" as="geometry" />
        </mxCell>
        <mxCell id="jL2-e-lXBzged_xy8-4M-52" value="add reader to copy set" style="ellipse;whiteSpace=wrap;html=1;rounded=0;" parent="jL2-e-lXBzged_xy8-4M-1" vertex="1">
          <mxGeometry x="550" y="126" width="80" height="80" as="geometry" />
        </mxCell>
        <mxCell id="jL2-e-lXBzged_xy8-4M-53" value="rcv rd cfm" style="text;html=1;strokeColor=none;fillColor=none;align=center;verticalAlign=middle;whiteSpace=wrap;rounded=0;" parent="jL2-e-lXBzged_xy8-4M-1" vertex="1">
          <mxGeometry x="480" y="140" width="60" height="30" as="geometry" />
        </mxCell>
        <mxCell id="jL2-e-lXBzged_xy8-4M-54" value="rcv write req" style="text;html=1;strokeColor=none;fillColor=none;align=center;verticalAlign=middle;whiteSpace=wrap;rounded=0;" parent="jL2-e-lXBzged_xy8-4M-1" vertex="1">
          <mxGeometry x="140" y="290" width="80" height="30" as="geometry" />
        </mxCell>
        <mxCell id="jL2-e-lXBzged_xy8-4M-55" value="" style="edgeStyle=orthogonalEdgeStyle;rounded=0;orthogonalLoop=1;jettySize=auto;html=1;" parent="jL2-e-lXBzged_xy8-4M-1" source="jL2-e-lXBzged_xy8-4M-56" target="jL2-e-lXBzged_xy8-4M-58" edge="1">
          <mxGeometry relative="1" as="geometry" />
        </mxCell>
        <mxCell id="jL2-e-lXBzged_xy8-4M-56" value="send invalidate cache req to copys" style="ellipse;whiteSpace=wrap;html=1;rounded=0;" parent="jL2-e-lXBzged_xy8-4M-1" vertex="1">
          <mxGeometry x="550" y="560" width="80" height="80" as="geometry" />
        </mxCell>
        <mxCell id="jL2-e-lXBzged_xy8-4M-57" value="" style="edgeStyle=orthogonalEdgeStyle;rounded=0;orthogonalLoop=1;jettySize=auto;html=1;" parent="jL2-e-lXBzged_xy8-4M-1" source="jL2-e-lXBzged_xy8-4M-58" target="jL2-e-lXBzged_xy8-4M-60" edge="1">
          <mxGeometry relative="1" as="geometry" />
        </mxCell>
        <mxCell id="jL2-e-lXBzged_xy8-4M-58" value="wait for inval confim" style="ellipse;whiteSpace=wrap;html=1;rounded=0;" parent="jL2-e-lXBzged_xy8-4M-1" vertex="1">
          <mxGeometry x="700" y="560" width="80" height="80" as="geometry" />
        </mxCell>
        <mxCell id="jL2-e-lXBzged_xy8-4M-59" value="" style="edgeStyle=orthogonalEdgeStyle;rounded=0;orthogonalLoop=1;jettySize=auto;html=1;" parent="jL2-e-lXBzged_xy8-4M-1" source="jL2-e-lXBzged_xy8-4M-60" target="jL2-e-lXBzged_xy8-4M-67" edge="1">
          <mxGeometry relative="1" as="geometry" />
        </mxCell>
        <mxCell id="jL2-e-lXBzged_xy8-4M-60" value="pop copy record" style="ellipse;whiteSpace=wrap;html=1;rounded=0;" parent="jL2-e-lXBzged_xy8-4M-1" vertex="1">
          <mxGeometry x="860" y="560" width="80" height="80" as="geometry" />
        </mxCell>
        <mxCell id="jL2-e-lXBzged_xy8-4M-61" value="yes" style="text;html=1;strokeColor=none;fillColor=none;align=center;verticalAlign=middle;whiteSpace=wrap;rounded=0;" parent="jL2-e-lXBzged_xy8-4M-1" vertex="1">
          <mxGeometry x="1010" y="535" width="60" height="30" as="geometry" />
        </mxCell>
        <mxCell id="jL2-e-lXBzged_xy8-4M-62" value="rcv cfm" style="text;html=1;strokeColor=none;fillColor=none;align=center;verticalAlign=middle;whiteSpace=wrap;rounded=0;" parent="jL2-e-lXBzged_xy8-4M-1" vertex="1">
          <mxGeometry x="790" y="570" width="60" height="30" as="geometry" />
        </mxCell>
        <mxCell id="jL2-e-lXBzged_xy8-4M-63" value="" style="edgeStyle=orthogonalEdgeStyle;rounded=0;orthogonalLoop=1;jettySize=auto;html=1;" parent="jL2-e-lXBzged_xy8-4M-1" source="jL2-e-lXBzged_xy8-4M-64" target="jL2-e-lXBzged_xy8-4M-70" edge="1">
          <mxGeometry relative="1" as="geometry" />
        </mxCell>
        <mxCell id="jL2-e-lXBzged_xy8-4M-64" value="forward write request" style="ellipse;whiteSpace=wrap;html=1;rounded=0;" parent="jL2-e-lXBzged_xy8-4M-1" vertex="1">
          <mxGeometry x="690" y="440" width="80" height="80" as="geometry" />
        </mxCell>
        <mxCell id="jL2-e-lXBzged_xy8-4M-65" style="edgeStyle=orthogonalEdgeStyle;rounded=0;orthogonalLoop=1;jettySize=auto;html=1;exitX=0.5;exitY=1;exitDx=0;exitDy=0;entryX=0.5;entryY=1;entryDx=0;entryDy=0;" parent="jL2-e-lXBzged_xy8-4M-1" source="jL2-e-lXBzged_xy8-4M-67" target="jL2-e-lXBzged_xy8-4M-58" edge="1">
          <mxGeometry relative="1" as="geometry" />
        </mxCell>
        <mxCell id="jL2-e-lXBzged_xy8-4M-66" style="edgeStyle=orthogonalEdgeStyle;rounded=0;orthogonalLoop=1;jettySize=auto;html=1;exitX=0.5;exitY=0;exitDx=0;exitDy=0;entryX=0.5;entryY=1;entryDx=0;entryDy=0;" parent="jL2-e-lXBzged_xy8-4M-1" source="jL2-e-lXBzged_xy8-4M-67" target="jL2-e-lXBzged_xy8-4M-64" edge="1">
          <mxGeometry relative="1" as="geometry" />
        </mxCell>
        <mxCell id="jL2-e-lXBzged_xy8-4M-67" value="copy is empty?" style="rhombus;whiteSpace=wrap;html=1;" parent="jL2-e-lXBzged_xy8-4M-1" vertex="1">
          <mxGeometry x="980" y="560" width="80" height="80" as="geometry" />
        </mxCell>
        <mxCell id="jL2-e-lXBzged_xy8-4M-68" value="no" style="text;html=1;strokeColor=none;fillColor=none;align=center;verticalAlign=middle;whiteSpace=wrap;rounded=0;" parent="jL2-e-lXBzged_xy8-4M-1" vertex="1">
          <mxGeometry x="1000" y="630" width="60" height="30" as="geometry" />
        </mxCell>
        <mxCell id="jL2-e-lXBzged_xy8-4M-69" value="" style="edgeStyle=orthogonalEdgeStyle;rounded=0;orthogonalLoop=1;jettySize=auto;html=1;" parent="jL2-e-lXBzged_xy8-4M-1" source="jL2-e-lXBzged_xy8-4M-70" target="jL2-e-lXBzged_xy8-4M-75" edge="1">
          <mxGeometry relative="1" as="geometry" />
        </mxCell>
        <mxCell id="jNB-9HegVFgoDkUqay4e-45" style="edgeStyle=orthogonalEdgeStyle;rounded=0;orthogonalLoop=1;jettySize=auto;html=1;exitX=0.5;exitY=0;exitDx=0;exitDy=0;entryX=0.5;entryY=0;entryDx=0;entryDy=0;" parent="jL2-e-lXBzged_xy8-4M-1" source="jL2-e-lXBzged_xy8-4M-70" target="jL2-e-lXBzged_xy8-4M-64" edge="1">
          <mxGeometry relative="1" as="geometry" />
        </mxCell>
        <mxCell id="jL2-e-lXBzged_xy8-4M-70" value="wait for write confirm" style="ellipse;whiteSpace=wrap;html=1;rounded=0;" parent="jL2-e-lXBzged_xy8-4M-1" vertex="1">
          <mxGeometry x="820" y="440" width="80" height="80" as="geometry" />
        </mxCell>
        <mxCell id="jL2-e-lXBzged_xy8-4M-71" value="" style="edgeStyle=orthogonalEdgeStyle;rounded=0;orthogonalLoop=1;jettySize=auto;html=1;" parent="jL2-e-lXBzged_xy8-4M-1" source="jL2-e-lXBzged_xy8-4M-73" target="jL2-e-lXBzged_xy8-4M-56" edge="1">
          <mxGeometry relative="1" as="geometry" />
        </mxCell>
        <mxCell id="jL2-e-lXBzged_xy8-4M-72" style="edgeStyle=orthogonalEdgeStyle;rounded=0;orthogonalLoop=1;jettySize=auto;html=1;exitX=1;exitY=0.5;exitDx=0;exitDy=0;entryX=0;entryY=0.5;entryDx=0;entryDy=0;" parent="jL2-e-lXBzged_xy8-4M-1" source="jL2-e-lXBzged_xy8-4M-73" target="jL2-e-lXBzged_xy8-4M-64" edge="1">
          <mxGeometry relative="1" as="geometry" />
        </mxCell>
        <mxCell id="jL2-e-lXBzged_xy8-4M-73" value="pop head of queue" style="ellipse;whiteSpace=wrap;html=1;rounded=0;" parent="jL2-e-lXBzged_xy8-4M-1" vertex="1">
          <mxGeometry x="550" y="440" width="80" height="80" as="geometry" />
        </mxCell>
        <mxCell id="jL2-e-lXBzged_xy8-4M-74" value="" style="edgeStyle=orthogonalEdgeStyle;rounded=0;orthogonalLoop=1;jettySize=auto;html=1;" parent="jL2-e-lXBzged_xy8-4M-1" source="jL2-e-lXBzged_xy8-4M-75" target="jL2-e-lXBzged_xy8-4M-78" edge="1">
          <mxGeometry relative="1" as="geometry" />
        </mxCell>
        <mxCell id="jL2-e-lXBzged_xy8-4M-75" value="remove page&amp;nbsp; written mark&amp;nbsp;" style="ellipse;whiteSpace=wrap;html=1;rounded=0;" parent="jL2-e-lXBzged_xy8-4M-1" vertex="1">
          <mxGeometry x="980" y="440" width="80" height="80" as="geometry" />
        </mxCell>
        <mxCell id="jL2-e-lXBzged_xy8-4M-76" value="rcv wr cfm" style="text;html=1;strokeColor=none;fillColor=none;align=center;verticalAlign=middle;whiteSpace=wrap;rounded=0;" parent="jL2-e-lXBzged_xy8-4M-1" vertex="1">
          <mxGeometry x="910" y="450" width="60" height="30" as="geometry" />
        </mxCell>
        <mxCell id="jL2-e-lXBzged_xy8-4M-77" value="" style="edgeStyle=orthogonalEdgeStyle;rounded=0;orthogonalLoop=1;jettySize=auto;html=1;" parent="jL2-e-lXBzged_xy8-4M-1" source="jL2-e-lXBzged_xy8-4M-78" target="jL2-e-lXBzged_xy8-4M-80" edge="1">
          <mxGeometry relative="1" as="geometry" />
        </mxCell>
        <mxCell id="jL2-e-lXBzged_xy8-4M-78" value="update page owner to be writer" style="ellipse;whiteSpace=wrap;html=1;rounded=0;" parent="jL2-e-lXBzged_xy8-4M-1" vertex="1">
          <mxGeometry x="1090" y="440" width="80" height="80" as="geometry" />
        </mxCell>
        <mxCell id="jL2-e-lXBzged_xy8-4M-79" value="" style="edgeStyle=orthogonalEdgeStyle;rounded=0;orthogonalLoop=1;jettySize=auto;html=1;" parent="jL2-e-lXBzged_xy8-4M-1" source="jL2-e-lXBzged_xy8-4M-80" target="jL2-e-lXBzged_xy8-4M-83" edge="1">
          <mxGeometry relative="1" as="geometry" />
        </mxCell>
        <mxCell id="jL2-e-lXBzged_xy8-4M-80" value="check page&#39;s queue" style="ellipse;whiteSpace=wrap;html=1;rounded=0;" parent="jL2-e-lXBzged_xy8-4M-1" vertex="1">
          <mxGeometry x="1200" y="440" width="80" height="80" as="geometry" />
        </mxCell>
        <mxCell id="jL2-e-lXBzged_xy8-4M-81" style="edgeStyle=orthogonalEdgeStyle;rounded=0;orthogonalLoop=1;jettySize=auto;html=1;exitX=1;exitY=0.5;exitDx=0;exitDy=0;entryX=0;entryY=0.5;entryDx=0;entryDy=0;" parent="jL2-e-lXBzged_xy8-4M-1" source="jL2-e-lXBzged_xy8-4M-83" target="jL2-e-lXBzged_xy8-4M-87" edge="1">
          <mxGeometry relative="1" as="geometry">
            <Array as="points">
              <mxPoint x="1465" y="480" />
              <mxPoint x="1465" y="480" />
            </Array>
          </mxGeometry>
        </mxCell>
        <mxCell id="jL2-e-lXBzged_xy8-4M-82" style="edgeStyle=orthogonalEdgeStyle;rounded=0;orthogonalLoop=1;jettySize=auto;html=1;exitX=0.5;exitY=0;exitDx=0;exitDy=0;entryX=0.5;entryY=1;entryDx=0;entryDy=0;" parent="jL2-e-lXBzged_xy8-4M-1" source="jL2-e-lXBzged_xy8-4M-83" target="jL2-e-lXBzged_xy8-4M-140" edge="1">
          <mxGeometry relative="1" as="geometry">
            <Array as="points">
              <mxPoint x="1360" y="380" />
              <mxPoint x="385" y="380" />
            </Array>
          </mxGeometry>
        </mxCell>
        <mxCell id="jL2-e-lXBzged_xy8-4M-83" value="queue is empty?" style="rhombus;whiteSpace=wrap;html=1;rounded=0;" parent="jL2-e-lXBzged_xy8-4M-1" vertex="1">
          <mxGeometry x="1320" y="440" width="80" height="80" as="geometry" />
        </mxCell>
        <mxCell id="jL2-e-lXBzged_xy8-4M-84" value="yes" style="text;html=1;strokeColor=none;fillColor=none;align=center;verticalAlign=middle;whiteSpace=wrap;rounded=0;" parent="jL2-e-lXBzged_xy8-4M-1" vertex="1">
          <mxGeometry x="1390" y="450" width="60" height="30" as="geometry" />
        </mxCell>
        <mxCell id="jL2-e-lXBzged_xy8-4M-85" value="no" style="text;html=1;strokeColor=none;fillColor=none;align=center;verticalAlign=middle;whiteSpace=wrap;rounded=0;" parent="jL2-e-lXBzged_xy8-4M-1" vertex="1">
          <mxGeometry x="1310" y="400" width="60" height="30" as="geometry" />
        </mxCell>
        <mxCell id="jL2-e-lXBzged_xy8-4M-86" value="exit" style="whiteSpace=wrap;html=1;rounded=0;" parent="jL2-e-lXBzged_xy8-4M-1" vertex="1">
          <mxGeometry x="670" y="136" width="60" height="60" as="geometry" />
        </mxCell>
        <mxCell id="jL2-e-lXBzged_xy8-4M-87" value="exit" style="whiteSpace=wrap;html=1;rounded=0;" parent="jL2-e-lXBzged_xy8-4M-1" vertex="1">
          <mxGeometry x="1450" y="450" width="60" height="60" as="geometry" />
        </mxCell>
        <mxCell id="jL2-e-lXBzged_xy8-4M-88" value="" style="edgeStyle=orthogonalEdgeStyle;rounded=0;orthogonalLoop=1;jettySize=auto;html=1;" parent="jL2-e-lXBzged_xy8-4M-1" source="jL2-e-lXBzged_xy8-4M-89" target="jL2-e-lXBzged_xy8-4M-92" edge="1">
          <mxGeometry relative="1" as="geometry" />
        </mxCell>
        <mxCell id="jL2-e-lXBzged_xy8-4M-89" value="send page" style="ellipse;whiteSpace=wrap;html=1;rounded=0;" parent="jL2-e-lXBzged_xy8-4M-1" vertex="1">
          <mxGeometry x="271.25" y="1440" width="80" height="80" as="geometry" />
        </mxCell>
        <mxCell id="jL2-e-lXBzged_xy8-4M-90" value="Rcv write forward" style="text;html=1;strokeColor=none;fillColor=none;align=center;verticalAlign=middle;whiteSpace=wrap;rounded=0;" parent="jL2-e-lXBzged_xy8-4M-1" vertex="1">
          <mxGeometry x="201.25" y="1450" width="60" height="30" as="geometry" />
        </mxCell>
        <mxCell id="jL2-e-lXBzged_xy8-4M-91" value="" style="edgeStyle=orthogonalEdgeStyle;rounded=0;orthogonalLoop=1;jettySize=auto;html=1;" parent="jL2-e-lXBzged_xy8-4M-1" source="jL2-e-lXBzged_xy8-4M-92" target="jL2-e-lXBzged_xy8-4M-95" edge="1">
          <mxGeometry relative="1" as="geometry" />
        </mxCell>
        <mxCell id="jL2-e-lXBzged_xy8-4M-92" value="mark access as nil" style="ellipse;whiteSpace=wrap;html=1;rounded=0;" parent="jL2-e-lXBzged_xy8-4M-1" vertex="1">
          <mxGeometry x="386.25" y="1440" width="80" height="80" as="geometry" />
        </mxCell>
        <mxCell id="jL2-e-lXBzged_xy8-4M-93" value="exit" style="whiteSpace=wrap;html=1;rounded=0;" parent="jL2-e-lXBzged_xy8-4M-1" vertex="1">
          <mxGeometry x="601.25" y="970" width="60" height="60" as="geometry" />
        </mxCell>
        <mxCell id="jL2-e-lXBzged_xy8-4M-94" value="exit" style="whiteSpace=wrap;html=1;rounded=0;" parent="jL2-e-lXBzged_xy8-4M-1" vertex="1">
          <mxGeometry x="386.25" y="1310" width="60" height="60" as="geometry" />
        </mxCell>
        <mxCell id="jL2-e-lXBzged_xy8-4M-95" value="exit" style="whiteSpace=wrap;html=1;rounded=0;" parent="jL2-e-lXBzged_xy8-4M-1" vertex="1">
          <mxGeometry x="511.25" y="1450" width="60" height="60" as="geometry" />
        </mxCell>
        <mxCell id="jL2-e-lXBzged_xy8-4M-96" value="" style="edgeStyle=orthogonalEdgeStyle;rounded=0;orthogonalLoop=1;jettySize=auto;html=1;" parent="jL2-e-lXBzged_xy8-4M-1" source="jL2-e-lXBzged_xy8-4M-97" target="jL2-e-lXBzged_xy8-4M-101" edge="1">
          <mxGeometry relative="1" as="geometry" />
        </mxCell>
        <mxCell id="jL2-e-lXBzged_xy8-4M-97" value="request to write page" style="ellipse;whiteSpace=wrap;html=1;rounded=0;" parent="jL2-e-lXBzged_xy8-4M-1" vertex="1">
          <mxGeometry x="251.25" y="1145" width="80" height="80" as="geometry" />
        </mxCell>
        <mxCell id="jL2-e-lXBzged_xy8-4M-98" value="" style="edgeStyle=orthogonalEdgeStyle;rounded=0;orthogonalLoop=1;jettySize=auto;html=1;" parent="jL2-e-lXBzged_xy8-4M-1" source="jL2-e-lXBzged_xy8-4M-101" target="jL2-e-lXBzged_xy8-4M-103" edge="1">
          <mxGeometry relative="1" as="geometry" />
        </mxCell>
        <mxCell id="jL2-e-lXBzged_xy8-4M-99" value="" style="edgeStyle=orthogonalEdgeStyle;rounded=0;orthogonalLoop=1;jettySize=auto;html=1;" parent="jL2-e-lXBzged_xy8-4M-1" source="jL2-e-lXBzged_xy8-4M-101" target="jL2-e-lXBzged_xy8-4M-103" edge="1">
          <mxGeometry relative="1" as="geometry" />
        </mxCell>
        <mxCell id="jL2-e-lXBzged_xy8-4M-100" style="edgeStyle=orthogonalEdgeStyle;rounded=0;orthogonalLoop=1;jettySize=auto;html=1;exitX=1;exitY=0.5;exitDx=0;exitDy=0;entryX=0;entryY=0.5;entryDx=0;entryDy=0;" parent="jL2-e-lXBzged_xy8-4M-1" source="jL2-e-lXBzged_xy8-4M-101" target="jL2-e-lXBzged_xy8-4M-106" edge="1">
          <mxGeometry relative="1" as="geometry" />
        </mxCell>
        <mxCell id="jL2-e-lXBzged_xy8-4M-101" value="I&#39;m owner?" style="rhombus;whiteSpace=wrap;html=1;rounded=0;" parent="jL2-e-lXBzged_xy8-4M-1" vertex="1">
          <mxGeometry x="366.25" y="1145" width="80" height="80" as="geometry" />
        </mxCell>
        <mxCell id="jL2-e-lXBzged_xy8-4M-102" value="" style="edgeStyle=orthogonalEdgeStyle;rounded=0;orthogonalLoop=1;jettySize=auto;html=1;" parent="jL2-e-lXBzged_xy8-4M-1" source="jL2-e-lXBzged_xy8-4M-103" target="jL2-e-lXBzged_xy8-4M-115" edge="1">
          <mxGeometry relative="1" as="geometry" />
        </mxCell>
        <mxCell id="jL2-e-lXBzged_xy8-4M-103" value="request manger" style="ellipse;whiteSpace=wrap;html=1;rounded=0;" parent="jL2-e-lXBzged_xy8-4M-1" vertex="1">
          <mxGeometry x="491.25" y="1080" width="80" height="80" as="geometry" />
        </mxCell>
        <mxCell id="jL2-e-lXBzged_xy8-4M-104" value="yes" style="text;html=1;strokeColor=none;fillColor=none;align=center;verticalAlign=middle;whiteSpace=wrap;rounded=0;" parent="jL2-e-lXBzged_xy8-4M-1" vertex="1">
          <mxGeometry x="421.25" y="1225" width="60" height="30" as="geometry" />
        </mxCell>
        <mxCell id="jL2-e-lXBzged_xy8-4M-105" value="" style="edgeStyle=orthogonalEdgeStyle;rounded=0;orthogonalLoop=1;jettySize=auto;html=1;" parent="jL2-e-lXBzged_xy8-4M-1" source="jL2-e-lXBzged_xy8-4M-106" target="jL2-e-lXBzged_xy8-4M-108" edge="1">
          <mxGeometry relative="1" as="geometry" />
        </mxCell>
        <mxCell id="jL2-e-lXBzged_xy8-4M-106" value="write" style="ellipse;whiteSpace=wrap;html=1;rounded=0;" parent="jL2-e-lXBzged_xy8-4M-1" vertex="1">
          <mxGeometry x="491.25" y="1220" width="80" height="80" as="geometry" />
        </mxCell>
        <mxCell id="jL2-e-lXBzged_xy8-4M-107" value="no" style="text;html=1;strokeColor=none;fillColor=none;align=center;verticalAlign=middle;whiteSpace=wrap;rounded=0;" parent="jL2-e-lXBzged_xy8-4M-1" vertex="1">
          <mxGeometry x="421.25" y="1115" width="60" height="30" as="geometry" />
        </mxCell>
        <mxCell id="jL2-e-lXBzged_xy8-4M-108" value="exit" style="whiteSpace=wrap;html=1;rounded=0;" parent="jL2-e-lXBzged_xy8-4M-1" vertex="1">
          <mxGeometry x="631.25" y="1230" width="60" height="60" as="geometry" />
        </mxCell>
        <mxCell id="jL2-e-lXBzged_xy8-4M-109" value="" style="edgeStyle=orthogonalEdgeStyle;rounded=0;orthogonalLoop=1;jettySize=auto;html=1;" parent="jL2-e-lXBzged_xy8-4M-1" source="jL2-e-lXBzged_xy8-4M-110" target="jL2-e-lXBzged_xy8-4M-112" edge="1">
          <mxGeometry relative="1" as="geometry" />
        </mxCell>
        <mxCell id="jL2-e-lXBzged_xy8-4M-110" value="Read" style="ellipse;whiteSpace=wrap;html=1;rounded=0;" parent="jL2-e-lXBzged_xy8-4M-1" vertex="1">
          <mxGeometry x="851.25" y="790" width="80" height="80" as="geometry" />
        </mxCell>
        <mxCell id="jL2-e-lXBzged_xy8-4M-111" value="" style="edgeStyle=orthogonalEdgeStyle;rounded=0;orthogonalLoop=1;jettySize=auto;html=1;" parent="jL2-e-lXBzged_xy8-4M-1" source="jL2-e-lXBzged_xy8-4M-112" target="jL2-e-lXBzged_xy8-4M-113" edge="1">
          <mxGeometry relative="1" as="geometry" />
        </mxCell>
        <mxCell id="jL2-e-lXBzged_xy8-4M-112" value="Confirm to manager" style="ellipse;whiteSpace=wrap;html=1;rounded=0;" parent="jL2-e-lXBzged_xy8-4M-1" vertex="1">
          <mxGeometry x="961.25" y="790" width="80" height="80" as="geometry" />
        </mxCell>
        <mxCell id="jL2-e-lXBzged_xy8-4M-113" value="exit" style="whiteSpace=wrap;html=1;rounded=0;" parent="jL2-e-lXBzged_xy8-4M-1" vertex="1">
          <mxGeometry x="1071.25" y="800" width="60" height="60" as="geometry" />
        </mxCell>
        <mxCell id="jL2-e-lXBzged_xy8-4M-114" value="" style="edgeStyle=orthogonalEdgeStyle;rounded=0;orthogonalLoop=1;jettySize=auto;html=1;" parent="jL2-e-lXBzged_xy8-4M-1" source="jL2-e-lXBzged_xy8-4M-115" target="jL2-e-lXBzged_xy8-4M-118" edge="1">
          <mxGeometry relative="1" as="geometry" />
        </mxCell>
        <mxCell id="jNB-9HegVFgoDkUqay4e-41" style="edgeStyle=orthogonalEdgeStyle;rounded=0;orthogonalLoop=1;jettySize=auto;html=1;exitX=0.5;exitY=1;exitDx=0;exitDy=0;entryX=0.5;entryY=1;entryDx=0;entryDy=0;" parent="jL2-e-lXBzged_xy8-4M-1" source="jL2-e-lXBzged_xy8-4M-115" target="jL2-e-lXBzged_xy8-4M-103" edge="1">
          <mxGeometry relative="1" as="geometry" />
        </mxCell>
        <mxCell id="jL2-e-lXBzged_xy8-4M-115" value="wait for page" style="ellipse;whiteSpace=wrap;html=1;rounded=0;" parent="jL2-e-lXBzged_xy8-4M-1" vertex="1">
          <mxGeometry x="611.25" y="1080" width="80" height="80" as="geometry" />
        </mxCell>
        <mxCell id="jL2-e-lXBzged_xy8-4M-116" value="Rcv page" style="text;html=1;strokeColor=none;fillColor=none;align=center;verticalAlign=middle;whiteSpace=wrap;rounded=0;" parent="jL2-e-lXBzged_xy8-4M-1" vertex="1">
          <mxGeometry x="691.25" y="1090" width="60" height="30" as="geometry" />
        </mxCell>
        <mxCell id="jL2-e-lXBzged_xy8-4M-117" value="" style="edgeStyle=orthogonalEdgeStyle;rounded=0;orthogonalLoop=1;jettySize=auto;html=1;" parent="jL2-e-lXBzged_xy8-4M-1" source="jL2-e-lXBzged_xy8-4M-118" target="jL2-e-lXBzged_xy8-4M-120" edge="1">
          <mxGeometry relative="1" as="geometry" />
        </mxCell>
        <mxCell id="jL2-e-lXBzged_xy8-4M-118" value="cache page,&lt;br&gt;mark access as RW(owner)" style="ellipse;whiteSpace=wrap;html=1;rounded=0;" parent="jL2-e-lXBzged_xy8-4M-1" vertex="1">
          <mxGeometry x="751.25" y="1080" width="90" height="80" as="geometry" />
        </mxCell>
        <mxCell id="jL2-e-lXBzged_xy8-4M-119" value="" style="edgeStyle=orthogonalEdgeStyle;rounded=0;orthogonalLoop=1;jettySize=auto;html=1;" parent="jL2-e-lXBzged_xy8-4M-1" source="jL2-e-lXBzged_xy8-4M-120" target="jL2-e-lXBzged_xy8-4M-121" edge="1">
          <mxGeometry relative="1" as="geometry" />
        </mxCell>
        <mxCell id="jL2-e-lXBzged_xy8-4M-120" value="Write" style="ellipse;whiteSpace=wrap;html=1;rounded=0;" parent="jL2-e-lXBzged_xy8-4M-1" vertex="1">
          <mxGeometry x="871.25" y="1080" width="80" height="80" as="geometry" />
        </mxCell>
        <mxCell id="jL2-e-lXBzged_xy8-4M-121" value="exit" style="whiteSpace=wrap;html=1;rounded=0;" parent="jL2-e-lXBzged_xy8-4M-1" vertex="1">
          <mxGeometry x="991.25" y="1090" width="60" height="60" as="geometry" />
        </mxCell>
        <mxCell id="jL2-e-lXBzged_xy8-4M-122" value="" style="edgeStyle=orthogonalEdgeStyle;rounded=0;orthogonalLoop=1;jettySize=auto;html=1;" parent="jL2-e-lXBzged_xy8-4M-1" source="jL2-e-lXBzged_xy8-4M-123" target="jL2-e-lXBzged_xy8-4M-140" edge="1">
          <mxGeometry relative="1" as="geometry" />
        </mxCell>
        <mxCell id="jL2-e-lXBzged_xy8-4M-123" value="put in queue" style="ellipse;whiteSpace=wrap;html=1;aspect=fixed;" parent="jL2-e-lXBzged_xy8-4M-1" vertex="1">
          <mxGeometry x="240" y="280" width="80" height="80" as="geometry" />
        </mxCell>
        <mxCell id="jL2-e-lXBzged_xy8-4M-124" value="" style="edgeStyle=orthogonalEdgeStyle;rounded=0;orthogonalLoop=1;jettySize=auto;html=1;" parent="jL2-e-lXBzged_xy8-4M-1" source="jL2-e-lXBzged_xy8-4M-125" target="jL2-e-lXBzged_xy8-4M-73" edge="1">
          <mxGeometry relative="1" as="geometry" />
        </mxCell>
        <mxCell id="jL2-e-lXBzged_xy8-4M-125" value="mark page as being written" style="ellipse;whiteSpace=wrap;html=1;rounded=0;" parent="jL2-e-lXBzged_xy8-4M-1" vertex="1">
          <mxGeometry x="435" y="440" width="80" height="80" as="geometry" />
        </mxCell>
        <mxCell id="jL2-e-lXBzged_xy8-4M-126" value="" style="edgeStyle=orthogonalEdgeStyle;rounded=0;orthogonalLoop=1;jettySize=auto;html=1;" parent="jL2-e-lXBzged_xy8-4M-1" source="jL2-e-lXBzged_xy8-4M-127" target="jL2-e-lXBzged_xy8-4M-129" edge="1">
          <mxGeometry relative="1" as="geometry" />
        </mxCell>
        <mxCell id="jL2-e-lXBzged_xy8-4M-127" value="invalidate cache" style="ellipse;whiteSpace=wrap;html=1;rounded=0;" parent="jL2-e-lXBzged_xy8-4M-1" vertex="1">
          <mxGeometry x="271.25" y="1590" width="80" height="80" as="geometry" />
        </mxCell>
        <mxCell id="jL2-e-lXBzged_xy8-4M-128" value="Rcv inv req" style="text;html=1;strokeColor=none;fillColor=none;align=center;verticalAlign=middle;whiteSpace=wrap;rounded=0;" parent="jL2-e-lXBzged_xy8-4M-1" vertex="1">
          <mxGeometry x="196.25" y="1600" width="60" height="30" as="geometry" />
        </mxCell>
        <mxCell id="jL2-e-lXBzged_xy8-4M-129" value="exit" style="whiteSpace=wrap;html=1;rounded=0;" parent="jL2-e-lXBzged_xy8-4M-1" vertex="1">
          <mxGeometry x="386.25" y="1600" width="60" height="60" as="geometry" />
        </mxCell>
        <mxCell id="jL2-e-lXBzged_xy8-4M-130" style="edgeStyle=orthogonalEdgeStyle;rounded=0;orthogonalLoop=1;jettySize=auto;html=1;exitX=1;exitY=0.5;exitDx=0;exitDy=0;entryX=0;entryY=0.5;entryDx=0;entryDy=0;" parent="jL2-e-lXBzged_xy8-4M-1" source="jL2-e-lXBzged_xy8-4M-132" target="jL2-e-lXBzged_xy8-4M-125" edge="1">
          <mxGeometry relative="1" as="geometry" />
        </mxCell>
        <mxCell id="jL2-e-lXBzged_xy8-4M-131" style="edgeStyle=orthogonalEdgeStyle;rounded=0;orthogonalLoop=1;jettySize=auto;html=1;exitX=1;exitY=0.5;exitDx=0;exitDy=0;" parent="jL2-e-lXBzged_xy8-4M-1" source="jL2-e-lXBzged_xy8-4M-132" edge="1">
          <mxGeometry relative="1" as="geometry">
            <mxPoint x="370" y="560" as="targetPoint" />
          </mxGeometry>
        </mxCell>
        <mxCell id="jL2-e-lXBzged_xy8-4M-132" value="check if being written" style="rhombus;whiteSpace=wrap;html=1;" parent="jL2-e-lXBzged_xy8-4M-1" vertex="1">
          <mxGeometry x="240" y="440" width="80" height="80" as="geometry" />
        </mxCell>
        <mxCell id="jL2-e-lXBzged_xy8-4M-133" value="yes" style="text;html=1;strokeColor=none;fillColor=none;align=center;verticalAlign=middle;whiteSpace=wrap;rounded=0;" parent="jL2-e-lXBzged_xy8-4M-1" vertex="1">
          <mxGeometry x="315" y="505" width="60" height="30" as="geometry" />
        </mxCell>
        <mxCell id="jL2-e-lXBzged_xy8-4M-134" value="no" style="text;html=1;strokeColor=none;fillColor=none;align=center;verticalAlign=middle;whiteSpace=wrap;rounded=0;" parent="jL2-e-lXBzged_xy8-4M-1" vertex="1">
          <mxGeometry x="375" y="450" width="60" height="30" as="geometry" />
        </mxCell>
        <mxCell id="jL2-e-lXBzged_xy8-4M-135" value="exit" style="whiteSpace=wrap;html=1;rounded=0;" parent="jL2-e-lXBzged_xy8-4M-1" vertex="1">
          <mxGeometry x="470" y="290" width="60" height="60" as="geometry" />
        </mxCell>
        <mxCell id="jL2-e-lXBzged_xy8-4M-136" value="if no copy" style="text;html=1;strokeColor=none;fillColor=none;align=center;verticalAlign=middle;whiteSpace=wrap;rounded=0;" parent="jL2-e-lXBzged_xy8-4M-1" vertex="1">
          <mxGeometry x="638" y="411.86" width="60" height="30" as="geometry" />
        </mxCell>
        <mxCell id="jL2-e-lXBzged_xy8-4M-137" value="if got copy" style="text;html=1;strokeColor=none;fillColor=none;align=center;verticalAlign=middle;whiteSpace=wrap;rounded=0;" parent="jL2-e-lXBzged_xy8-4M-1" vertex="1">
          <mxGeometry x="590" y="521.86" width="60" height="30" as="geometry" />
        </mxCell>
        <mxCell id="jL2-e-lXBzged_xy8-4M-138" value="rcv signal" style="text;html=1;strokeColor=none;fillColor=none;align=center;verticalAlign=middle;whiteSpace=wrap;rounded=0;" parent="jL2-e-lXBzged_xy8-4M-1" vertex="1">
          <mxGeometry x="140" y="450" width="80" height="30" as="geometry" />
        </mxCell>
        <mxCell id="jL2-e-lXBzged_xy8-4M-139" value="" style="edgeStyle=orthogonalEdgeStyle;rounded=0;orthogonalLoop=1;jettySize=auto;html=1;" parent="jL2-e-lXBzged_xy8-4M-1" source="jL2-e-lXBzged_xy8-4M-140" target="jL2-e-lXBzged_xy8-4M-135" edge="1">
          <mxGeometry relative="1" as="geometry" />
        </mxCell>
        <mxCell id="jL2-e-lXBzged_xy8-4M-140" value="send signal" style="ellipse;whiteSpace=wrap;html=1;aspect=fixed;" parent="jL2-e-lXBzged_xy8-4M-1" vertex="1">
          <mxGeometry x="345" y="280" width="80" height="80" as="geometry" />
        </mxCell>
        <mxCell id="jL2-e-lXBzged_xy8-4M-141" value="exit" style="whiteSpace=wrap;html=1;rounded=0;" parent="jL2-e-lXBzged_xy8-4M-1" vertex="1">
          <mxGeometry x="345" y="560" width="60" height="60" as="geometry" />
        </mxCell>
        <mxCell id="jNB-9HegVFgoDkUqay4e-2" value="" style="edgeStyle=orthogonalEdgeStyle;rounded=0;orthogonalLoop=1;jettySize=auto;html=1;" parent="jL2-e-lXBzged_xy8-4M-1" source="jNB-9HegVFgoDkUqay4e-0" target="jNB-9HegVFgoDkUqay4e-1" edge="1">
          <mxGeometry relative="1" as="geometry" />
        </mxCell>
        <mxCell id="jNB-9HegVFgoDkUqay4e-8" value="" style="edgeStyle=orthogonalEdgeStyle;rounded=0;orthogonalLoop=1;jettySize=auto;html=1;" parent="jL2-e-lXBzged_xy8-4M-1" source="jNB-9HegVFgoDkUqay4e-0" target="jNB-9HegVFgoDkUqay4e-7" edge="1">
          <mxGeometry relative="1" as="geometry" />
        </mxCell>
        <mxCell id="jNB-9HegVFgoDkUqay4e-23" style="edgeStyle=orthogonalEdgeStyle;rounded=0;orthogonalLoop=1;jettySize=auto;html=1;exitX=1;exitY=0.75;exitDx=0;exitDy=0;entryX=0;entryY=0.75;entryDx=0;entryDy=0;" parent="jL2-e-lXBzged_xy8-4M-1" source="jNB-9HegVFgoDkUqay4e-0" target="jNB-9HegVFgoDkUqay4e-1" edge="1">
          <mxGeometry relative="1" as="geometry" />
        </mxCell>
        <mxCell id="jNB-9HegVFgoDkUqay4e-0" value="PrimaryM" style="rounded=0;whiteSpace=wrap;html=1;" parent="jL2-e-lXBzged_xy8-4M-1" vertex="1">
          <mxGeometry x="21.25" y="1950" width="120" height="150" as="geometry" />
        </mxCell>
        <mxCell id="jNB-9HegVFgoDkUqay4e-3" style="edgeStyle=orthogonalEdgeStyle;rounded=0;orthogonalLoop=1;jettySize=auto;html=1;exitX=0;exitY=0.5;exitDx=0;exitDy=0;" parent="jL2-e-lXBzged_xy8-4M-1" source="jNB-9HegVFgoDkUqay4e-1" target="jNB-9HegVFgoDkUqay4e-0" edge="1">
          <mxGeometry relative="1" as="geometry" />
        </mxCell>
        <mxCell id="jNB-9HegVFgoDkUqay4e-24" style="edgeStyle=orthogonalEdgeStyle;rounded=0;orthogonalLoop=1;jettySize=auto;html=1;exitX=0;exitY=0.75;exitDx=0;exitDy=0;entryX=1;entryY=0.75;entryDx=0;entryDy=0;" parent="jL2-e-lXBzged_xy8-4M-1" source="jNB-9HegVFgoDkUqay4e-1" target="jNB-9HegVFgoDkUqay4e-0" edge="1">
          <mxGeometry relative="1" as="geometry" />
        </mxCell>
        <mxCell id="jNB-9HegVFgoDkUqay4e-68" style="edgeStyle=orthogonalEdgeStyle;rounded=0;orthogonalLoop=1;jettySize=auto;html=1;exitX=0.5;exitY=1;exitDx=0;exitDy=0;" parent="jL2-e-lXBzged_xy8-4M-1" source="jNB-9HegVFgoDkUqay4e-1" target="jNB-9HegVFgoDkUqay4e-66" edge="1">
          <mxGeometry relative="1" as="geometry" />
        </mxCell>
        <mxCell id="jNB-9HegVFgoDkUqay4e-1" value="BackupM" style="rounded=0;whiteSpace=wrap;html=1;" parent="jL2-e-lXBzged_xy8-4M-1" vertex="1">
          <mxGeometry x="281.25" y="1950" width="120" height="150" as="geometry" />
        </mxCell>
        <mxCell id="jNB-9HegVFgoDkUqay4e-4" value="Heartbeat" style="text;html=1;strokeColor=none;fillColor=none;align=center;verticalAlign=middle;whiteSpace=wrap;rounded=0;" parent="jL2-e-lXBzged_xy8-4M-1" vertex="1">
          <mxGeometry x="156.25" y="2000" width="60" height="30" as="geometry" />
        </mxCell>
        <mxCell id="jNB-9HegVFgoDkUqay4e-6" value="hb_ch" style="text;html=1;strokeColor=none;fillColor=none;align=center;verticalAlign=middle;whiteSpace=wrap;rounded=0;" parent="jL2-e-lXBzged_xy8-4M-1" vertex="1">
          <mxGeometry x="221.25" y="2000" width="60" height="30" as="geometry" />
        </mxCell>
        <mxCell id="jNB-9HegVFgoDkUqay4e-74" value="" style="edgeStyle=orthogonalEdgeStyle;rounded=0;orthogonalLoop=1;jettySize=auto;html=1;" parent="jL2-e-lXBzged_xy8-4M-1" source="jNB-9HegVFgoDkUqay4e-7" target="jNB-9HegVFgoDkUqay4e-73" edge="1">
          <mxGeometry relative="1" as="geometry" />
        </mxCell>
        <mxCell id="jNB-9HegVFgoDkUqay4e-7" value="mark backup as down" style="ellipse;whiteSpace=wrap;html=1;rounded=0;" parent="jL2-e-lXBzged_xy8-4M-1" vertex="1">
          <mxGeometry x="41.25" y="1810" width="80" height="80" as="geometry" />
        </mxCell>
        <mxCell id="jNB-9HegVFgoDkUqay4e-9" value="detect backup failure" style="text;html=1;strokeColor=none;fillColor=none;align=center;verticalAlign=middle;whiteSpace=wrap;rounded=0;" parent="jL2-e-lXBzged_xy8-4M-1" vertex="1">
          <mxGeometry x="81.25" y="1910" width="60" height="30" as="geometry" />
        </mxCell>
        <mxCell id="jNB-9HegVFgoDkUqay4e-21" value="" style="edgeStyle=orthogonalEdgeStyle;rounded=0;orthogonalLoop=1;jettySize=auto;html=1;" parent="jL2-e-lXBzged_xy8-4M-1" source="jNB-9HegVFgoDkUqay4e-10" target="jNB-9HegVFgoDkUqay4e-20" edge="1">
          <mxGeometry relative="1" as="geometry" />
        </mxCell>
        <mxCell id="jNB-9HegVFgoDkUqay4e-10" value="set role = p" style="ellipse;whiteSpace=wrap;html=1;rounded=0;" parent="jL2-e-lXBzged_xy8-4M-1" vertex="1">
          <mxGeometry x="411.25" y="2170" width="80" height="80" as="geometry" />
        </mxCell>
        <mxCell id="jNB-9HegVFgoDkUqay4e-61" style="edgeStyle=orthogonalEdgeStyle;rounded=0;orthogonalLoop=1;jettySize=auto;html=1;exitX=1;exitY=0.5;exitDx=0;exitDy=0;entryX=0;entryY=0.5;entryDx=0;entryDy=0;" parent="jL2-e-lXBzged_xy8-4M-1" source="jNB-9HegVFgoDkUqay4e-12" target="jNB-9HegVFgoDkUqay4e-59" edge="1">
          <mxGeometry relative="1" as="geometry" />
        </mxCell>
        <mxCell id="jNB-9HegVFgoDkUqay4e-12" value="detect primary failure" style="text;html=1;strokeColor=none;fillColor=none;align=center;verticalAlign=middle;whiteSpace=wrap;rounded=0;" parent="jL2-e-lXBzged_xy8-4M-1" vertex="1">
          <mxGeometry x="341.25" y="2120" width="60" height="30" as="geometry" />
        </mxCell>
        <mxCell id="jNB-9HegVFgoDkUqay4e-14" value="List" style="swimlane;fontStyle=0;childLayout=stackLayout;horizontal=1;startSize=30;horizontalStack=0;resizeParent=1;resizeParentMax=0;resizeLast=0;collapsible=1;marginBottom=0;whiteSpace=wrap;html=1;" parent="jL2-e-lXBzged_xy8-4M-1" vertex="1">
          <mxGeometry x="-138.75" y="2025" width="140" height="120" as="geometry" />
        </mxCell>
        <mxCell id="jNB-9HegVFgoDkUqay4e-15" value="backup" style="text;strokeColor=none;fillColor=none;align=left;verticalAlign=middle;spacingLeft=4;spacingRight=4;overflow=hidden;points=[[0,0.5],[1,0.5]];portConstraint=eastwest;rotatable=0;whiteSpace=wrap;html=1;" parent="jNB-9HegVFgoDkUqay4e-14" vertex="1">
          <mxGeometry y="30" width="140" height="30" as="geometry" />
        </mxCell>
        <mxCell id="jNB-9HegVFgoDkUqay4e-16" value="Item 2" style="text;strokeColor=none;fillColor=none;align=left;verticalAlign=middle;spacingLeft=4;spacingRight=4;overflow=hidden;points=[[0,0.5],[1,0.5]];portConstraint=eastwest;rotatable=0;whiteSpace=wrap;html=1;" parent="jNB-9HegVFgoDkUqay4e-14" vertex="1">
          <mxGeometry y="60" width="140" height="30" as="geometry" />
        </mxCell>
        <mxCell id="jNB-9HegVFgoDkUqay4e-17" value="Item 3" style="text;strokeColor=none;fillColor=none;align=left;verticalAlign=middle;spacingLeft=4;spacingRight=4;overflow=hidden;points=[[0,0.5],[1,0.5]];portConstraint=eastwest;rotatable=0;whiteSpace=wrap;html=1;" parent="jNB-9HegVFgoDkUqay4e-14" vertex="1">
          <mxGeometry y="90" width="140" height="30" as="geometry" />
        </mxCell>
        <mxCell id="jNB-9HegVFgoDkUqay4e-18" value="servers" style="rounded=0;whiteSpace=wrap;html=1;" parent="jL2-e-lXBzged_xy8-4M-1" vertex="1">
          <mxGeometry x="21.25" y="2180" width="120" height="60" as="geometry" />
        </mxCell>
        <mxCell id="jNB-9HegVFgoDkUqay4e-19" value="manager" style="text;html=1;strokeColor=none;fillColor=none;align=center;verticalAlign=middle;whiteSpace=wrap;rounded=0;" parent="jL2-e-lXBzged_xy8-4M-1" vertex="1">
          <mxGeometry x="51.25" y="2240" width="60" height="30" as="geometry" />
        </mxCell>
        <mxCell id="jNB-9HegVFgoDkUqay4e-56" value="" style="edgeStyle=orthogonalEdgeStyle;rounded=0;orthogonalLoop=1;jettySize=auto;html=1;" parent="jL2-e-lXBzged_xy8-4M-1" source="jNB-9HegVFgoDkUqay4e-20" target="jNB-9HegVFgoDkUqay4e-55" edge="1">
          <mxGeometry relative="1" as="geometry" />
        </mxCell>
        <mxCell id="jNB-9HegVFgoDkUqay4e-20" value="send servers own id as primary" style="ellipse;whiteSpace=wrap;html=1;rounded=0;" parent="jL2-e-lXBzged_xy8-4M-1" vertex="1">
          <mxGeometry x="526.25" y="2170" width="80" height="80" as="geometry" />
        </mxCell>
        <mxCell id="jNB-9HegVFgoDkUqay4e-25" value="Update data" style="text;html=1;strokeColor=none;fillColor=none;align=center;verticalAlign=middle;whiteSpace=wrap;rounded=0;" parent="jL2-e-lXBzged_xy8-4M-1" vertex="1">
          <mxGeometry x="136.25" y="2040" width="90" height="30" as="geometry" />
        </mxCell>
        <mxCell id="jNB-9HegVFgoDkUqay4e-26" value="update_ch" style="text;html=1;strokeColor=none;fillColor=none;align=center;verticalAlign=middle;whiteSpace=wrap;rounded=0;" parent="jL2-e-lXBzged_xy8-4M-1" vertex="1">
          <mxGeometry x="221.25" y="2040" width="60" height="30" as="geometry" />
        </mxCell>
        <mxCell id="jNB-9HegVFgoDkUqay4e-29" value="send update right after write happens" style="text;html=1;strokeColor=none;fillColor=none;align=center;verticalAlign=middle;whiteSpace=wrap;rounded=0;" parent="jL2-e-lXBzged_xy8-4M-1" vertex="1">
          <mxGeometry x="406.25" y="2040" width="205" height="30" as="geometry" />
        </mxCell>
        <mxCell id="jNB-9HegVFgoDkUqay4e-30" value="heartbeat every 3 second" style="text;html=1;strokeColor=none;fillColor=none;align=center;verticalAlign=middle;whiteSpace=wrap;rounded=0;" parent="jL2-e-lXBzged_xy8-4M-1" vertex="1">
          <mxGeometry x="403.75" y="2010" width="147.5" height="30" as="geometry" />
        </mxCell>
        <mxCell id="jNB-9HegVFgoDkUqay4e-37" value="timeout" style="text;html=1;strokeColor=none;fillColor=none;align=center;verticalAlign=middle;whiteSpace=wrap;rounded=0;" parent="jL2-e-lXBzged_xy8-4M-1" vertex="1">
          <mxGeometry x="551.25" y="870" width="60" height="30" as="geometry" />
        </mxCell>
        <mxCell id="jNB-9HegVFgoDkUqay4e-42" value="timeout" style="text;html=1;strokeColor=none;fillColor=none;align=center;verticalAlign=middle;whiteSpace=wrap;rounded=0;" parent="jL2-e-lXBzged_xy8-4M-1" vertex="1">
          <mxGeometry x="561.25" y="1160" width="60" height="30" as="geometry" />
        </mxCell>
        <mxCell id="jNB-9HegVFgoDkUqay4e-44" value="timeout" style="text;html=1;strokeColor=none;fillColor=none;align=center;verticalAlign=middle;whiteSpace=wrap;rounded=0;" parent="jL2-e-lXBzged_xy8-4M-1" vertex="1">
          <mxGeometry x="330" y="196" width="60" height="30" as="geometry" />
        </mxCell>
        <mxCell id="jNB-9HegVFgoDkUqay4e-47" value="timeout" style="text;html=1;strokeColor=none;fillColor=none;align=center;verticalAlign=middle;whiteSpace=wrap;rounded=0;" parent="jL2-e-lXBzged_xy8-4M-1" vertex="1">
          <mxGeometry x="760" y="390" width="60" height="30" as="geometry" />
        </mxCell>
        <mxCell id="jNB-9HegVFgoDkUqay4e-71" value="" style="edgeStyle=orthogonalEdgeStyle;rounded=0;orthogonalLoop=1;jettySize=auto;html=1;" parent="jL2-e-lXBzged_xy8-4M-1" source="jNB-9HegVFgoDkUqay4e-55" target="jNB-9HegVFgoDkUqay4e-69" edge="1">
          <mxGeometry relative="1" as="geometry" />
        </mxCell>
        <mxCell id="jNB-9HegVFgoDkUqay4e-55" value="detect pri rejoin" style="rhombus;whiteSpace=wrap;html=1;rounded=0;" parent="jL2-e-lXBzged_xy8-4M-1" vertex="1">
          <mxGeometry x="631.25" y="2170" width="80" height="80" as="geometry" />
        </mxCell>
        <mxCell id="jNB-9HegVFgoDkUqay4e-57" value="rcv hb again" style="text;html=1;strokeColor=none;fillColor=none;align=center;verticalAlign=middle;whiteSpace=wrap;rounded=0;" parent="jL2-e-lXBzged_xy8-4M-1" vertex="1">
          <mxGeometry x="530" y="2250" width="60" height="30" as="geometry" />
        </mxCell>
        <mxCell id="jNB-9HegVFgoDkUqay4e-59" value="no hb" style="text;html=1;strokeColor=none;fillColor=none;align=center;verticalAlign=middle;whiteSpace=wrap;rounded=0;" parent="jL2-e-lXBzged_xy8-4M-1" vertex="1">
          <mxGeometry x="420" y="2120" width="50" height="30" as="geometry" />
        </mxCell>
        <mxCell id="jNB-9HegVFgoDkUqay4e-65" value="" style="edgeStyle=orthogonalEdgeStyle;rounded=0;orthogonalLoop=1;jettySize=auto;html=1;" parent="jL2-e-lXBzged_xy8-4M-1" source="jNB-9HegVFgoDkUqay4e-62" target="jNB-9HegVFgoDkUqay4e-64" edge="1">
          <mxGeometry relative="1" as="geometry" />
        </mxCell>
        <mxCell id="jNB-9HegVFgoDkUqay4e-62" value="set role = b" style="ellipse;whiteSpace=wrap;html=1;rounded=0;" parent="jL2-e-lXBzged_xy8-4M-1" vertex="1">
          <mxGeometry x="850" y="2170" width="80" height="80" as="geometry" />
        </mxCell>
        <mxCell id="jNB-9HegVFgoDkUqay4e-80" value="" style="edgeStyle=orthogonalEdgeStyle;rounded=0;orthogonalLoop=1;jettySize=auto;html=1;" parent="jL2-e-lXBzged_xy8-4M-1" source="jNB-9HegVFgoDkUqay4e-64" target="jNB-9HegVFgoDkUqay4e-79" edge="1">
          <mxGeometry relative="1" as="geometry" />
        </mxCell>
        <mxCell id="jNB-9HegVFgoDkUqay4e-64" value="send servers old pri id as primary" style="ellipse;whiteSpace=wrap;html=1;rounded=0;" parent="jL2-e-lXBzged_xy8-4M-1" vertex="1">
          <mxGeometry x="951.25" y="2170" width="80" height="80" as="geometry" />
        </mxCell>
        <mxCell id="jNB-9HegVFgoDkUqay4e-67" value="" style="edgeStyle=orthogonalEdgeStyle;rounded=0;orthogonalLoop=1;jettySize=auto;html=1;" parent="jL2-e-lXBzged_xy8-4M-1" source="jNB-9HegVFgoDkUqay4e-66" target="jNB-9HegVFgoDkUqay4e-10" edge="1">
          <mxGeometry relative="1" as="geometry" />
        </mxCell>
        <mxCell id="jNB-9HegVFgoDkUqay4e-66" value="mark pri as down" style="ellipse;whiteSpace=wrap;html=1;rounded=0;" parent="jL2-e-lXBzged_xy8-4M-1" vertex="1">
          <mxGeometry x="301.25" y="2170" width="80" height="80" as="geometry" />
        </mxCell>
        <mxCell id="jNB-9HegVFgoDkUqay4e-72" value="" style="edgeStyle=orthogonalEdgeStyle;rounded=0;orthogonalLoop=1;jettySize=auto;html=1;" parent="jL2-e-lXBzged_xy8-4M-1" source="jNB-9HegVFgoDkUqay4e-69" target="jNB-9HegVFgoDkUqay4e-62" edge="1">
          <mxGeometry relative="1" as="geometry" />
        </mxCell>
        <mxCell id="jNB-9HegVFgoDkUqay4e-69" value="mark pri as alive" style="ellipse;whiteSpace=wrap;html=1;rounded=0;" parent="jL2-e-lXBzged_xy8-4M-1" vertex="1">
          <mxGeometry x="741.25" y="2170" width="80" height="80" as="geometry" />
        </mxCell>
        <mxCell id="jNB-9HegVFgoDkUqay4e-76" value="" style="edgeStyle=orthogonalEdgeStyle;rounded=0;orthogonalLoop=1;jettySize=auto;html=1;" parent="jL2-e-lXBzged_xy8-4M-1" source="jNB-9HegVFgoDkUqay4e-73" target="jNB-9HegVFgoDkUqay4e-75" edge="1">
          <mxGeometry relative="1" as="geometry" />
        </mxCell>
        <mxCell id="jNB-9HegVFgoDkUqay4e-73" value="detect &lt;br&gt;backup&lt;br&gt;rejoin" style="rhombus;whiteSpace=wrap;html=1;rounded=0;" parent="jL2-e-lXBzged_xy8-4M-1" vertex="1">
          <mxGeometry x="156.25" y="1810" width="80" height="80" as="geometry" />
        </mxCell>
        <mxCell id="jNB-9HegVFgoDkUqay4e-75" value="mark backup as alive" style="ellipse;whiteSpace=wrap;html=1;rounded=0;" parent="jL2-e-lXBzged_xy8-4M-1" vertex="1">
          <mxGeometry x="271.25" y="1810" width="80" height="80" as="geometry" />
        </mxCell>
        <mxCell id="jNB-9HegVFgoDkUqay4e-77" value="send" style="text;html=1;strokeColor=none;fillColor=none;align=center;verticalAlign=middle;whiteSpace=wrap;rounded=0;" parent="jL2-e-lXBzged_xy8-4M-1" vertex="1">
          <mxGeometry x="136.25" y="1980" width="60" height="30" as="geometry" />
        </mxCell>
        <mxCell id="jNB-9HegVFgoDkUqay4e-78" value="reply" style="text;html=1;strokeColor=none;fillColor=none;align=center;verticalAlign=middle;whiteSpace=wrap;rounded=0;" parent="jL2-e-lXBzged_xy8-4M-1" vertex="1">
          <mxGeometry x="236.25" y="1980" width="60" height="30" as="geometry" />
        </mxCell>
        <mxCell id="jNB-9HegVFgoDkUqay4e-79" value="update pri all data" style="ellipse;whiteSpace=wrap;html=1;rounded=0;" parent="jL2-e-lXBzged_xy8-4M-1" vertex="1">
          <mxGeometry x="1061.25" y="2170" width="80" height="80" as="geometry" />
        </mxCell>
      </root>
    </mxGraphModel>
  </diagram>
</mxfile>
